<svg width="44" height="36" viewBox="0 0 44 36" fill="none" xmlns="http://www.w3.org/2000/svg">
<path opacity="0.8" d="M38.6671 19.672C38.6671 21.4054 40.0755 22.8354 41.8088 22.8354C42.6321 22.8354 43.3255 23.507 43.3255 24.3304C43.3255 32.6504 40.8121 35.1637 32.4921 35.1637H21.1171V31.7187C21.1171 30.8737 20.4671 30.1804 19.6438 30.1154V23.9404C20.4671 23.8754 21.1171 23.182 21.1171 22.337V12.9337C21.1171 12.0887 20.4671 11.3954 19.6438 11.3304V2.31702H32.4921C40.8121 2.31702 43.3255 4.83035 43.3255 13.1504V14.992C43.3255 15.837 42.6321 16.5087 41.8088 16.5087C40.0755 16.5087 38.6671 17.917 38.6671 19.672Z" fill="url(#paint0_radial_497_8290)"/>
<path d="M19.6434 11.3328C18.7551 11.3328 17.8668 12.0478 17.8668 12.9361V22.3395C17.8668 23.2278 18.6034 23.9645 19.4918 23.9645C19.5351 23.9645 19.6001 23.9645 19.6434 23.9428V30.1178C19.6001 30.0961 19.5351 30.0961 19.4918 30.0961C18.6034 30.0961 17.8668 30.8328 17.8668 31.7211V35.1661H14.0534C9.98007 35.1661 7.8784 32.1111 5.97173 27.4961L5.6034 26.5861C5.30007 25.8061 5.6684 24.9178 6.4484 24.6145C7.25007 24.3111 7.8784 23.6828 8.2034 22.8595C8.55007 22.0578 8.55007 21.1695 8.22507 20.3678C7.53173 18.6995 5.62507 17.8978 3.93507 18.5695C3.56673 18.7428 3.1334 18.7428 2.76507 18.5695C2.39673 18.4178 2.11507 18.1145 1.94173 17.7245L1.61673 16.8578C-1.6116 9.01445 -0.203266 5.65611 7.64007 2.40611L12.9484 0.21778C13.7284 -0.10722 14.6167 0.261113 14.9201 1.04111L19.6434 11.3328Z" fill="black"/>
<defs>
<radialGradient id="paint0_radial_497_8290" cx="0" cy="0" r="1" gradientUnits="userSpaceOnUse" gradientTransform="translate(31.4846 18.7404) rotate(90) scale(16.4233 11.8408)">
<stop stop-color="#FF4F00"/>
<stop offset="1" stop-color="#FF8A56" stop-opacity="0.54"/>
</radialGradient>
</defs>
</svg>
