<svg width="46" height="43" viewBox="0 0 46 43" fill="none" xmlns="http://www.w3.org/2000/svg">
<path d="M36.8334 25.2366C32.0451 25.2366 28.1667 29.1149 28.1667 33.9032C28.1667 35.5282 28.6217 37.0666 29.4234 38.3666C30.9184 40.8799 33.6701 42.5699 36.8334 42.5699C39.9967 42.5699 42.7484 40.8799 44.2434 38.3666C45.0451 37.0666 45.5001 35.5282 45.5001 33.9032C45.5001 29.1149 41.6217 25.2366 36.8334 25.2366ZM41.3184 32.9716L36.7034 37.2399C36.4001 37.5216 35.9884 37.6732 35.5984 37.6732C35.1867 37.6732 34.7751 37.5216 34.4501 37.1966L32.3051 35.0516C31.6767 34.4232 31.6767 33.3832 32.3051 32.7549C32.9334 32.1266 33.9734 32.1266 34.6017 32.7549L35.6417 33.7949L39.1084 30.5882C39.7584 29.9816 40.7984 30.0249 41.4051 30.6749C42.0117 31.3249 41.9684 32.3432 41.3184 32.9716Z" fill="black"/>
<path d="M43.3333 9.06985V12.2332H0V9.06985C0 4.10819 4.03004 0.0998535 8.99171 0.0998535H34.3417C39.3033 0.0998535 43.3333 4.10819 43.3333 9.06985Z" fill="black"/>
<path opacity="0.8" d="M0 12.2366V28.3999C0 33.3616 4.00836 37.3699 8.97002 37.3699H22.5333C23.79 37.3699 24.8733 36.3082 24.765 35.0516C24.4617 31.7366 25.5233 28.1399 28.47 25.2799C29.6833 24.0882 31.1783 23.1782 32.8033 22.6582C35.5117 21.7916 38.1333 21.8999 40.4517 22.6799C41.86 23.1566 43.3333 22.1382 43.3333 20.6432V12.2366H0ZM13 30.1116H8.66667C7.77833 30.1116 7.04167 29.3749 7.04167 28.4866C7.04167 27.5982 7.77833 26.8616 8.66667 26.8616H13C13.8883 26.8616 14.625 27.5982 14.625 28.4866C14.625 29.3749 13.8883 30.1116 13 30.1116Z" fill="url(#paint0_radial_497_8286)"/>
<path d="M14.6251 28.4866C14.6251 29.3749 13.8884 30.1116 13.0001 30.1116H8.66675C7.77841 30.1116 7.04175 29.3749 7.04175 28.4866C7.04175 27.5982 7.77841 26.8616 8.66675 26.8616H13.0001C13.8884 26.8616 14.6251 27.5982 14.6251 28.4866Z" fill="black"/>
<defs>
<radialGradient id="paint0_radial_497_8286" cx="0" cy="0" r="1" gradientUnits="userSpaceOnUse" gradientTransform="translate(21.6667 24.8032) rotate(90) scale(12.5667 21.6667)">
<stop stop-color="#FF4F00"/>
<stop offset="1" stop-color="#FF8A56" stop-opacity="0.54"/>
</radialGradient>
</defs>
</svg>
