<svg width="46" height="46" viewBox="0 0 46 46" fill="none" xmlns="http://www.w3.org/2000/svg">
<path opacity="0.8" d="M21.6667 1.7164C24.96 1.7164 28.08 2.47473 30.875 3.77473C35.975 5.99452 40 11 41.2533 14.1531C42.575 16.9697 43.3333 20.0897 43.3333 23.3831C43.3333 35.3431 33.6267 45.0497 21.6667 45.0497C9.70667 45.0497 0 35.3431 0 23.3831C0 11.4231 9.70667 1.7164 21.6667 1.7164Z" fill="url(#paint0_radial_497_8289)"/>
<path d="M44.6272 2.76789L38.2355 9.15958L36.5 10.9247H39.3724H41.1708C42.0591 10.9247 42.7958 11.6614 42.7958 12.5497C42.7958 13.4164 42.1024 14.1097 41.2358 14.153L32.6467 14.0749C32.43 14.0749 32.235 14.0315 32.0183 13.9449C31.6283 13.7715 31.3033 13.4682 31.13 13.0565C31.0433 12.8615 31 12.6449 31 12.4282L31.0469 3.69654C31.0902 2.85154 31.7835 2.1582 32.6502 2.1582C33.5385 2.1582 34.2752 2.89487 34.2752 3.7832V5.55987V8.40015L35.9388 6.8629L42.3305 0.47125C42.9588 -0.157083 43.9988 -0.157083 44.6272 0.47125C45.2555 1.09958 45.2555 2.13956 44.6272 2.76789Z" fill="black"/>
<path d="M25.4583 22.9931L23.2917 22.2347V17.4247H23.465C24.57 17.4247 25.4583 18.3997 25.4583 19.5914C25.4583 20.4797 26.195 21.2164 27.0833 21.2164C27.9717 21.2164 28.7083 20.4797 28.7083 19.5914C28.7083 16.6014 26.3683 14.1747 23.465 14.1747H23.2917V13.6331C23.2917 12.7447 22.555 12.0081 21.6667 12.0081C20.7783 12.0081 20.0417 12.7447 20.0417 13.6331V14.1747H19.3917C16.77 14.1747 14.625 16.3847 14.625 19.1147C14.625 22.2781 16.4667 23.2964 17.875 23.7947L20.0417 24.5531V29.3631H19.8683C18.7633 29.3631 17.875 28.3881 17.875 27.1964C17.875 26.3081 17.1383 25.5714 16.25 25.5714C15.3617 25.5714 14.625 26.3081 14.625 27.1964C14.625 30.1864 16.965 32.6131 19.8683 32.6131H20.0417V33.1547C20.0417 34.0431 20.7783 34.7797 21.6667 34.7797C22.555 34.7797 23.2917 34.0431 23.2917 33.1547V32.6131H23.9417C26.5633 32.6131 28.7083 30.4031 28.7083 27.6731C28.7083 24.4881 26.8667 23.4697 25.4583 22.9931ZM18.9367 20.6964C18.2 20.4364 17.875 20.2847 17.875 19.0931C17.875 18.1614 18.5683 17.4031 19.3917 17.4031H20.0417V21.0647L18.9367 20.6964ZM23.9417 29.3414H23.2917V25.6797L24.3967 26.0697C25.1333 26.3297 25.4583 26.4814 25.4583 27.6731C25.4583 28.5831 24.765 29.3414 23.9417 29.3414Z" fill="black"/>
<defs>
<radialGradient id="paint0_radial_497_8289" cx="0" cy="0" r="1" gradientUnits="userSpaceOnUse" gradientTransform="translate(21.6667 23.3831) rotate(90) scale(21.6667)">
<stop stop-color="#FF4F00"/>
<stop offset="1" stop-color="#FF8A56" stop-opacity="0.54"/>
</radialGradient>
</defs>
</svg>
