<svg width="44" height="43" viewBox="0 0 44 43" fill="none" xmlns="http://www.w3.org/2000/svg">
<path opacity="0.8" d="M31.854 36.397H11.1841C10.2741 36.397 9.45074 35.812 9.14741 34.967L0.134076 9.72527C-0.580924 7.71027 1.71574 5.9986 3.42741 7.2336L12.0941 13.4303C13.2424 14.2536 14.8891 13.7553 15.3874 12.4336L19.4823 1.5136C20.1757 -0.371396 22.8407 -0.371396 23.534 1.5136L27.629 12.4336C28.1273 13.7769 29.7523 14.2536 30.9223 13.4303L39.589 7.2336C41.3223 5.9986 43.5973 7.73194 42.8823 9.72527L33.869 34.967C33.5873 35.812 32.764 36.397 31.854 36.397Z" fill="url(#paint0_radial_497_8291)"/>
<path d="M32.3518 42.9423H10.6852C9.79685 42.9423 9.06018 42.2056 9.06018 41.3173C9.06018 40.429 9.79685 39.6923 10.6852 39.6923H32.3518C33.2402 39.6923 33.9768 40.429 33.9768 41.3173C33.9768 42.2056 33.2402 42.9423 32.3518 42.9423Z" fill="black"/>
<path d="M26.9353 27.234H16.1019C15.2136 27.234 14.4769 26.4973 14.4769 25.609C14.4769 24.7206 15.2136 23.984 16.1019 23.984H26.9353C27.8236 23.984 28.5603 24.7206 28.5603 25.609C28.5603 26.4973 27.8236 27.234 26.9353 27.234Z" fill="black"/>
<defs>
<radialGradient id="paint0_radial_497_8291" cx="0" cy="0" r="1" gradientUnits="userSpaceOnUse" gradientTransform="translate(21.5087 18.2484) rotate(90) scale(18.1486 21.5087)">
<stop stop-color="#FF4F00"/>
<stop offset="1" stop-color="#FF8A56" stop-opacity="0.54"/>
</radialGradient>
</defs>
</svg>
