<svg width="44" height="40" viewBox="0 0 44 40" fill="none" xmlns="http://www.w3.org/2000/svg">
<path opacity="0.8" d="M34.6667 0.0996094H8.66667C3.87833 0.0996094 0 3.95628 0 8.70128V30.4979C0 35.2429 3.87833 39.0996 8.66667 39.0996H34.6667C39.455 39.0996 43.3333 35.2429 43.3333 30.4979V8.70128C43.3333 3.95628 39.455 0.0996094 34.6667 0.0996094Z" fill="url(#paint0_radial_497_8288)"/>
<path d="M36.8333 12.5579H26C25.1117 12.5579 24.375 11.8213 24.375 10.9329C24.375 10.0446 25.1117 9.30792 26 9.30792H36.8333C37.7217 9.30792 38.4583 10.0446 38.4583 10.9329C38.4583 11.8213 37.7217 12.5579 36.8333 12.5579Z" fill="black"/>
<path d="M36.8334 21.2246H28.1667C27.2784 21.2246 26.5417 20.4879 26.5417 19.5996C26.5417 18.7113 27.2784 17.9746 28.1667 17.9746H36.8334C37.7217 17.9746 38.4584 18.7113 38.4584 19.5996C38.4584 20.4879 37.7217 21.2246 36.8334 21.2246Z" fill="black"/>
<path d="M36.8333 29.8913H32.5C31.6117 29.8913 30.875 29.1546 30.875 28.2663C30.875 27.378 31.6117 26.6413 32.5 26.6413H36.8333C37.7217 26.6413 38.4583 27.378 38.4583 28.2663C38.4583 29.1546 37.7217 29.8913 36.8333 29.8913Z" fill="black"/>
<path d="M14.0821 19.1487C16.8463 19.1487 19.0873 16.9079 19.0873 14.1437C19.0873 11.3795 16.8463 9.13867 14.0821 9.13867C11.318 9.13867 9.07715 11.3795 9.07715 14.1437C9.07715 16.9079 11.318 19.1487 14.0821 19.1487Z" fill="black"/>
<path d="M15.8157 22.0083C14.6674 21.9 13.4757 21.9 12.3274 22.0083C8.68737 22.355 5.76237 25.2366 5.4157 28.8766C5.39404 29.18 5.4807 29.4833 5.69737 29.7C5.91404 29.9166 6.1957 30.0683 6.49904 30.0683H21.6656C21.969 30.0683 22.2723 29.9383 22.4673 29.7216C22.6623 29.505 22.7706 29.2016 22.749 28.8983C22.3806 25.2366 19.4773 22.355 15.8157 22.0083Z" fill="black"/>
<defs>
<radialGradient id="paint0_radial_497_8288" cx="0" cy="0" r="1" gradientUnits="userSpaceOnUse" gradientTransform="translate(21.6667 19.5996) rotate(90) scale(19.5 21.6667)">
<stop stop-color="#FF4F00"/>
<stop offset="1" stop-color="#FF8A56" stop-opacity="0.54"/>
</radialGradient>
</defs>
</svg>
