<svg width="9" height="18" viewBox="0 0 9 18" fill="none" xmlns="http://www.w3.org/2000/svg">
<path d="M8.6684 0.956606L6.5562 0.953125C4.18322 0.953125 2.64969 2.56932 2.64969 5.07082V6.96936H0.52597C0.342456 6.96936 0.193848 7.12219 0.193848 7.3107V10.0615C0.193848 10.25 0.342625 10.4026 0.52597 10.4026H2.64969V17.3437C2.64969 17.5322 2.7983 17.6848 2.98181 17.6848H5.75267C5.93618 17.6848 6.08479 17.532 6.08479 17.3437V10.4026H8.56791C8.75143 10.4026 8.90003 10.25 8.90003 10.0615L8.90105 7.3107C8.90105 7.22018 8.86598 7.1335 8.80379 7.06944C8.7416 7.00539 8.65687 6.96936 8.56876 6.96936H6.08479V5.35994C6.08479 4.5864 6.26424 4.1937 7.24518 4.1937L8.66806 4.19318C8.8514 4.19318 9.00001 4.04035 9.00001 3.85201V1.29777C9.00001 1.10961 8.85157 0.956954 8.6684 0.956606Z" fill="#F96E27"/>
</svg>
