<svg width="17" height="18" viewBox="0 0 17 18" fill="none" xmlns="http://www.w3.org/2000/svg">
<path d="M3.70798 6.53027H0.275756C0.123429 6.53027 0 6.64924 0 6.79595V17.4191C0 17.5658 0.123429 17.6847 0.275756 17.6847H3.70798C3.86031 17.6847 3.98374 17.5658 3.98374 17.4191V6.79595C3.98374 6.64924 3.86031 6.53027 3.70798 6.53027Z" fill="#F96E27"/>
<path d="M1.99267 0.953125C0.893902 0.953125 0 1.84649 0 2.94458C0 4.04316 0.893902 4.93687 1.99267 4.93687C3.09057 4.93687 3.98374 4.04311 3.98374 2.94458C3.98379 1.84649 3.09057 0.953125 1.99267 0.953125Z" fill="#F96E27"/>
<path d="M12.3784 5.73389C11.0106 5.73389 9.9994 6.33145 9.38608 7.01044V6.2883C9.38608 6.13475 9.26361 6.01023 9.11245 6.01023H5.85084C5.69969 6.01023 5.57721 6.13475 5.57721 6.2883V17.407C5.57721 17.5606 5.69969 17.6851 5.85084 17.6851H9.24916C9.40031 17.6851 9.52279 17.5606 9.52279 17.407V11.9058C9.52279 10.052 10.0183 9.32985 11.2899 9.32985C12.6748 9.32985 12.7848 10.4876 12.7848 12.0012V17.407C12.7848 17.5606 12.9073 17.6851 13.0585 17.6851H16.4581C16.6092 17.6851 16.7317 17.5606 16.7317 17.407V11.3082C16.7317 8.55176 16.2145 5.73389 12.3784 5.73389Z" fill="#F96E27"/>
</svg>
