<svg width="249" height="32" viewBox="0 0 249 32" fill="none" xmlns="http://www.w3.org/2000/svg">
<path fill-rule="evenodd" clip-rule="evenodd" d="M14.8258 0.538315C14.9596 0.212638 15.2768 0 15.6289 0H21.713C22.3276 0 22.7476 0.621122 22.5187 1.19155L19.0899 9.73644H24.6471C25.3505 9.73644 25.762 10.5291 25.3571 11.1044L10.9971 31.5075C10.8345 31.7385 10.5697 31.876 10.2871 31.876H9.79194C9.17621 31.876 8.75615 31.2528 8.98712 30.6821L14.9536 15.938H9.79507C9.1774 15.938 8.75728 15.3112 8.99198 14.7399L14.8258 0.538315ZM15.712 0.992248L9.98011 14.9457H15.1376C15.7533 14.9457 16.1734 15.5689 15.9424 16.1396L9.97593 30.8837H10.2228L24.4081 10.7287H18.9065C18.2918 10.7287 17.8718 10.1076 18.1007 9.53714L21.5296 0.992248H15.712Z" fill="white"/>
<rect x="16.248" y="5.02319" width="1.11628" height="1.11628" fill="white"/>
<rect x="15.2554" y="7.50391" width="1.11628" height="1.11628" fill="white"/>
<rect x="14.2637" y="9.9845" width="1.11628" height="1.11628" fill="white"/>
<path fill-rule="evenodd" clip-rule="evenodd" d="M13.4399 1.17118C6.3707 2.38492 0.992249 8.5405 0.992249 15.9499C0.992249 21.4516 3.95709 26.262 8.38001 28.8719L7.87575 29.7264C3.16315 26.9457 0 21.8172 0 15.9499C0 8.04859 5.73516 1.48727 13.272 0.193237L13.4399 1.17118ZM31.0078 15.9499C31.0078 10.1869 27.7544 5.18213 22.9802 2.67108L23.4421 1.79289C28.5293 4.46854 32 9.80369 32 15.9499C32 24.7802 24.8362 31.938 16 31.938C14.9179 31.938 13.8604 31.8306 12.8378 31.6257L13.0327 30.6528C13.9915 30.8449 14.9837 30.9458 16 30.9458C24.2889 30.9458 31.0078 24.2315 31.0078 15.9499Z" fill="white"/>
<path fill-rule="evenodd" clip-rule="evenodd" d="M12.3036 3.39462C6.72068 4.86125 2.60504 9.93422 2.60504 15.9644C2.60504 20.7323 5.17742 24.9015 9.01572 27.1637L8.5119 28.0186C4.38402 25.5857 1.61279 21.0985 1.61279 15.9644C1.61279 9.47102 6.04447 4.01298 12.0515 2.43494L12.3036 3.39462ZM28.6516 15.9644C28.6516 11.2289 26.1141 7.08402 22.3192 4.81145L22.8289 3.96017C26.9102 6.40418 29.6438 10.8652 29.6438 15.9644C29.6438 23.6913 23.3679 29.9536 15.6283 29.9536C15.0631 29.9536 14.5055 29.9201 13.9575 29.8551L14.0743 28.8698C14.5837 28.9302 15.1023 28.9613 15.6283 28.9613C22.8218 28.9613 28.6516 23.1415 28.6516 15.9644Z" fill="white"/>
<path d="M62.2657 2.20745H64.2635V14.2568H71.308V2.20745H73.3057V14.2568H74.8408L74.6725 18.841H73.0954L72.8431 15.876H62.2657V2.20745Z" fill="white"/>
<path d="M76.846 15.876V2.20745H85.657V3.8687H78.8648V7.94823H84.963V9.58845H78.8648V14.2147H85.9514V15.876H76.846Z" fill="white"/>
<path d="M97.5594 2.20745H99.5571V15.876H97.5594V9.50433H90.2205V15.876H88.2228V2.20745H90.2205V7.88514H97.5594V2.20745Z" fill="white"/>
<path d="M101.554 3.80562V2.20745H111.731V3.80562H107.652V15.876H105.633V3.80562H101.554Z" fill="white"/>
<path d="M113.728 2.20745H118.48C120.065 2.20745 121.361 2.59297 122.371 3.36402C123.38 4.13506 123.885 5.18649 123.885 6.51829C123.885 7.87813 123.387 8.93656 122.392 9.69359C121.41 10.4506 120.107 10.8291 118.48 10.8291H115.726V15.876H113.728V2.20745ZM115.726 3.82665V9.20994H118.207C119.427 9.20994 120.345 8.99965 120.962 8.57908C121.579 8.15851 121.887 7.47158 121.887 6.51829C121.887 4.72386 120.66 3.82665 118.207 3.82665H115.726Z" fill="white"/>
<path d="M126.214 15.876V2.20745H135.025V3.8687H128.232V7.94823H134.331V9.58845H128.232V14.2147H135.319V15.876H126.214Z" fill="white"/>
<path d="M146.927 2.20745H148.925V15.876H146.927V9.50433H139.588V15.876H137.59V2.20745H139.588V7.88514H146.927V2.20745Z" fill="white"/>
<path d="M151.657 15.876V2.20745H160.468V3.8687H153.676V7.94823H159.774V9.58845H153.676V14.2147H160.763V15.876H151.657Z" fill="white"/>
<path d="M163.034 2.20745H167.786C169.371 2.20745 170.667 2.59297 171.677 3.36402C172.686 4.13506 173.191 5.18649 173.191 6.51829C173.191 7.87813 172.693 8.93656 171.698 9.69359C170.716 10.4506 169.413 10.8291 167.786 10.8291H165.032V15.876H163.034V2.20745ZM165.032 3.82665V9.20994H167.513C168.733 9.20994 169.651 8.99965 170.268 8.57908C170.885 8.15851 171.193 7.47158 171.193 6.51829C171.193 4.72386 169.966 3.82665 167.513 3.82665H165.032Z" fill="white"/>
<path d="M175.52 2.20745H184.183V3.82665H177.538V15.876H175.52V2.20745Z" fill="white"/>
<path d="M197.386 3.93179C198.801 5.26359 199.509 6.9669 199.509 9.04171C199.509 11.1165 198.801 12.8198 197.386 14.1516C195.984 15.4834 194.238 16.1493 192.149 16.1493C190.061 16.1493 188.308 15.4834 186.892 14.1516C185.49 12.8198 184.789 11.1165 184.789 9.04171C184.789 6.9669 185.49 5.26359 186.892 3.93179C188.308 2.59998 190.061 1.93408 192.149 1.93408C194.238 1.93408 195.984 2.59998 197.386 3.93179ZM188.343 5.06733C187.32 6.03463 186.808 7.35943 186.808 9.04171C186.808 10.724 187.32 12.0558 188.343 13.0371C189.367 14.0044 190.635 14.4881 192.149 14.4881C193.663 14.4881 194.932 14.0044 195.956 13.0371C196.979 12.0558 197.491 10.724 197.491 9.04171C197.491 7.35943 196.979 6.03463 195.956 5.06733C194.932 4.086 193.663 3.59533 192.149 3.59533C190.635 3.59533 189.367 4.086 188.343 5.06733Z" fill="white"/>
<path d="M203.215 7.56971H205.676C206.391 7.56971 206.951 7.40149 207.358 7.06503C207.764 6.71456 207.968 6.23791 207.968 5.63509C207.968 5.06032 207.743 4.56965 207.295 4.1631C206.846 3.74253 206.159 3.53225 205.234 3.53225C204.477 3.53225 203.839 3.63038 203.32 3.82665C202.802 4.00889 202.248 4.33834 201.659 4.81498L200.86 3.4271C202.024 2.43176 203.503 1.93408 205.297 1.93408C206.643 1.93408 207.743 2.27755 208.599 2.96448C209.468 3.65141 209.902 4.51358 209.902 5.55098C209.902 6.11174 209.762 6.62343 209.482 7.08606C209.201 7.54869 208.816 7.88514 208.325 8.09543V8.17954C209.012 8.48796 209.573 8.95759 210.008 9.58845C210.456 10.2193 210.68 10.9273 210.68 11.7123C210.68 13.0581 210.176 14.1376 209.166 14.9507C208.171 15.7498 206.888 16.1493 205.318 16.1493C204.253 16.1493 203.37 16.0582 202.669 15.876C201.968 15.7077 201.232 15.3713 200.461 14.8666L201.112 13.1002C201.771 13.6469 202.395 14.0184 202.984 14.2147C203.573 14.397 204.295 14.4881 205.15 14.4881C206.159 14.4881 207 14.2568 207.673 13.7941C208.36 13.3175 208.704 12.6376 208.704 11.7544C208.704 10.8852 208.458 10.2333 207.968 9.79873C207.491 9.36414 206.818 9.14685 205.949 9.14685H203.215V7.56971Z" fill="white"/>
<path d="M212.792 2.20745H221.939V3.80562H214.79V7.46457H217.691C219.318 7.46457 220.6 7.82906 221.54 8.55805C222.479 9.27302 222.949 10.3104 222.949 11.6703C222.949 13.0161 222.479 14.0535 221.54 14.7825C220.6 15.5115 219.339 15.876 217.755 15.876H212.792V2.20745ZM214.79 9.08376V14.2568H217.481C218.687 14.2568 219.563 14.0535 220.11 13.6469C220.671 13.2264 220.951 12.5675 220.951 11.6703C220.951 10.717 220.663 10.0511 220.089 9.67256C219.528 9.28003 218.638 9.08376 217.418 9.08376H214.79Z" fill="white"/>
<path d="M223.594 2.20745H225.844L230.618 13.1212H230.744L234.824 2.20745H236.884L231.901 14.8456C231.382 16.1353 230.821 17.0886 230.218 17.7054C229.616 18.3223 228.844 18.6307 227.905 18.6307C227.176 18.6307 226.531 18.4625 225.971 18.126L226.433 16.5489C226.812 16.7451 227.204 16.8433 227.611 16.8433C228.634 16.8433 229.328 16.2965 229.693 15.203L223.594 2.20745Z" fill="white"/>
<path d="M238.033 3.80562V2.20745H248.211V3.80562H244.132V15.876H242.113V3.80562H238.033Z" fill="white"/>
<path d="M63.5749 24.7938C64.2525 24.7938 64.7595 24.9413 65.0959 25.2362C65.4347 25.5312 65.6041 25.9504 65.6041 26.494C65.6041 26.7378 65.5688 26.9718 65.4981 27.1961C65.4299 27.4203 65.3165 27.6202 65.1581 27.7957C65.0021 27.9712 64.7936 28.1101 64.5328 28.2125C64.2744 28.3149 63.9551 28.3661 63.5749 28.3661H63.169V30.1394H61.7247V24.7938H63.5749ZM63.5419 25.9602H63.169V27.1887H63.4542C63.5785 27.1887 63.6943 27.168 63.8016 27.1266C63.9088 27.0827 63.9941 27.0132 64.0575 26.9182C64.1233 26.8207 64.1562 26.6915 64.1562 26.5306C64.1562 26.3624 64.1062 26.2259 64.0063 26.1211C63.9064 26.0138 63.7516 25.9602 63.5419 25.9602Z" fill="white"/>
<path d="M69.5861 30.1394L69.3228 29.1376H67.586L67.3155 30.1394H65.7286L67.4727 24.7719H69.3996L71.1656 30.1394H69.5861ZM69.023 27.9529L68.7926 27.0754C68.7683 26.9803 68.7329 26.845 68.6866 26.6695C68.6403 26.4916 68.594 26.3088 68.5477 26.1211C68.5038 25.9309 68.4697 25.7749 68.4453 25.6531C68.4234 25.7749 68.3917 25.9261 68.3502 26.1065C68.3112 26.2844 68.2698 26.4611 68.2259 26.6366C68.1845 26.8121 68.1479 26.9584 68.1162 27.0754L67.8859 27.9529H69.023Z" fill="white"/>
<path d="M75.451 26.0443C75.451 26.3977 75.3426 26.6805 75.1256 26.8926C74.9111 27.1046 74.6003 27.246 74.1933 27.3167V27.346C74.6881 27.3874 75.0549 27.5202 75.2938 27.7445C75.5351 27.9663 75.6558 28.2552 75.6558 28.6111C75.6558 28.9231 75.5693 29.1997 75.3962 29.4411C75.2256 29.6824 74.9733 29.8713 74.6393 30.0078C74.3054 30.1443 73.8947 30.2126 73.4071 30.2126C72.944 30.2126 72.5442 30.1857 72.2078 30.1321C71.8739 30.0785 71.5948 30.009 71.3705 29.9237V28.6805C71.5192 28.7537 71.6911 28.817 71.8861 28.8707C72.0835 28.9219 72.2834 28.9621 72.4857 28.9913C72.6881 29.0181 72.8709 29.0315 73.0342 29.0315C73.4486 29.0315 73.7411 28.9877 73.9117 28.8999C74.0848 28.8122 74.1713 28.6708 74.1713 28.4758C74.1713 28.2954 74.0677 28.1613 73.8605 28.0736C73.6558 27.9834 73.3499 27.9383 72.9428 27.9383H72.3139V26.7683H72.877C73.1841 26.7683 73.4181 26.7512 73.579 26.7171C73.7423 26.6829 73.8532 26.6318 73.9117 26.5635C73.9702 26.4952 73.9995 26.4087 73.9995 26.3039C73.9995 26.1771 73.9397 26.0784 73.8203 26.0077C73.7033 25.937 73.5059 25.9017 73.228 25.9017C73.0062 25.9017 72.7856 25.9322 72.5662 25.9931C72.3492 26.0516 72.1433 26.1455 71.9482 26.2746L71.3413 25.2801C71.5436 25.1485 71.7484 25.0412 71.9556 24.9584C72.1628 24.8755 72.3907 24.8145 72.6393 24.7755C72.8879 24.7365 73.1768 24.717 73.5059 24.717C73.9081 24.717 74.2542 24.7743 74.5443 24.8889C74.8368 25.0034 75.061 25.1607 75.217 25.3606C75.373 25.558 75.451 25.7859 75.451 26.0443Z" fill="white"/>
<path d="M81.4367 27.4593C81.4367 27.8713 81.3867 28.2466 81.2868 28.5855C81.1893 28.9219 81.0357 29.2119 80.8261 29.4557C80.6164 29.6994 80.3471 29.8871 80.018 30.0188C79.6889 30.148 79.2953 30.2126 78.837 30.2126C78.3885 30.2126 77.9997 30.148 77.6706 30.0188C77.344 29.8871 77.0746 29.7007 76.8626 29.4593C76.6505 29.2156 76.4933 28.9243 76.3909 28.5855C76.2885 28.2466 76.2373 27.8688 76.2373 27.452C76.2373 26.8962 76.3287 26.4136 76.5115 26.0041C76.6968 25.5921 76.982 25.274 77.3671 25.0498C77.7523 24.8231 78.2447 24.7097 78.8443 24.7097C79.4537 24.7097 79.9485 24.8231 80.3288 25.0498C80.7115 25.2765 80.9918 25.5958 81.1698 26.0077C81.3477 26.4197 81.4367 26.9035 81.4367 27.4593ZM77.7584 27.4593C77.7584 27.7811 77.7949 28.0577 77.8681 28.2893C77.9412 28.5209 78.057 28.6988 78.2154 28.8231C78.3739 28.9475 78.5811 29.0096 78.837 29.0096C79.1027 29.0096 79.3135 28.9475 79.4696 28.8231C79.628 28.6988 79.7413 28.5209 79.8096 28.2893C79.8803 28.0577 79.9156 27.7811 79.9156 27.4593C79.9156 26.9767 79.8352 26.5952 79.6743 26.3149C79.5134 26.0345 79.2368 25.8944 78.8443 25.8944C78.5835 25.8944 78.3726 25.9578 78.2118 26.0845C78.0533 26.2113 77.9375 26.3916 77.8644 26.6257C77.7937 26.8597 77.7584 27.1375 77.7584 27.4593Z" fill="white"/>
<path d="M84.5813 30.1394L83.4881 26.2893H83.4551C83.4649 26.3892 83.4746 26.5245 83.4844 26.6951C83.4966 26.8658 83.5076 27.0498 83.5173 27.2472C83.5271 27.4447 83.5319 27.6348 83.5319 27.8176V30.1394H82.2522V24.7938H84.1754L85.2906 28.5891H85.3199L86.4131 24.7938H88.3401V30.1394H87.0128V27.7957C87.0128 27.6275 87.0152 27.4471 87.0201 27.2546C87.0274 27.0595 87.0347 26.8767 87.042 26.7061C87.0518 26.533 87.0603 26.3965 87.0676 26.2966H87.0347L85.9561 30.1394H84.5813Z" fill="white"/>
<path d="M94.9913 26.0443C94.9913 26.3977 94.8828 26.6805 94.6659 26.8926C94.4514 27.1046 94.1406 27.246 93.7335 27.3167V27.346C94.2283 27.3874 94.5952 27.5202 94.8341 27.7445C95.0754 27.9663 95.196 28.2552 95.196 28.6111C95.196 28.9231 95.1095 29.1997 94.9365 29.4411C94.7658 29.6824 94.5135 29.8713 94.1796 30.0078C93.8456 30.1443 93.4349 30.2126 92.9474 30.2126C92.4842 30.2126 92.0845 30.1857 91.7481 30.1321C91.4141 30.0785 91.135 30.009 90.9108 29.9237V28.6805C91.0595 28.7537 91.2313 28.817 91.4263 28.8707C91.6238 28.9219 91.8237 28.9621 92.026 28.9913C92.2283 29.0181 92.4111 29.0315 92.5744 29.0315C92.9888 29.0315 93.2813 28.9877 93.452 28.8999C93.625 28.8122 93.7116 28.6708 93.7116 28.4758C93.7116 28.2954 93.608 28.1613 93.4008 28.0736C93.196 27.9834 92.8901 27.9383 92.483 27.9383H91.8541V26.7683H92.4172C92.7243 26.7683 92.9583 26.7512 93.1192 26.7171C93.2825 26.6829 93.3935 26.6318 93.452 26.5635C93.5105 26.4952 93.5397 26.4087 93.5397 26.3039C93.5397 26.1771 93.48 26.0784 93.3606 26.0077C93.2435 25.937 93.0461 25.9017 92.7682 25.9017C92.5464 25.9017 92.3258 25.9322 92.1064 25.9931C91.8895 26.0516 91.6835 26.1455 91.4885 26.2746L90.8815 25.2801C91.0839 25.1485 91.2886 25.0412 91.4958 24.9584C91.703 24.8755 91.9309 24.8145 92.1795 24.7755C92.4282 24.7365 92.717 24.717 93.0461 24.717C93.4483 24.717 93.7944 24.7743 94.0845 24.8889C94.377 25.0034 94.6013 25.1607 94.7573 25.3606C94.9133 25.558 94.9913 25.7859 94.9913 26.0443Z" fill="white"/>
<path d="M97.7704 24.7938H99.6352C100.408 24.7938 100.959 24.9084 101.288 25.1375C101.617 25.3666 101.781 25.6957 101.781 26.1247C101.781 26.3587 101.739 26.5574 101.653 26.7207C101.571 26.884 101.465 27.0132 101.335 27.1083C101.209 27.2034 101.078 27.268 100.944 27.3021V27.3386C101.09 27.3752 101.235 27.4362 101.379 27.5215C101.526 27.6043 101.646 27.7299 101.741 27.8981C101.839 28.0638 101.888 28.2893 101.888 28.5745C101.888 28.8987 101.805 29.1778 101.639 29.4118C101.476 29.6458 101.242 29.8262 100.937 29.953C100.632 30.0773 100.27 30.1394 99.8509 30.1394H97.7704V24.7938ZM99.2147 26.845H99.6498C99.8887 26.845 100.057 26.7963 100.154 26.6988C100.252 26.5988 100.301 26.4782 100.301 26.3368C100.301 26.1905 100.245 26.0796 100.132 26.0041C100.023 25.9261 99.8521 25.8871 99.6206 25.8871H99.2147V26.845ZM99.2147 27.9017V29.0242H99.7229C99.974 29.0242 100.15 28.9706 100.249 28.8634C100.349 28.7537 100.399 28.6172 100.399 28.4538C100.399 28.3588 100.377 28.2698 100.334 28.1869C100.292 28.1016 100.22 28.0334 100.118 27.9822C100.015 27.9285 99.8741 27.9017 99.6937 27.9017H99.2147Z" fill="white"/>
<path d="M105.946 30.1394L105.683 29.1376H103.946L103.676 30.1394H102.089L103.833 24.7719H105.76L107.526 30.1394H105.946ZM105.383 27.9529L105.153 27.0754C105.128 26.9803 105.093 26.845 105.047 26.6695C105 26.4916 104.954 26.3088 104.908 26.1211C104.864 25.9309 104.83 25.7749 104.805 25.6531C104.783 25.7749 104.752 25.9261 104.71 26.1065C104.671 26.2844 104.63 26.4611 104.586 26.6366C104.545 26.8121 104.508 26.9584 104.476 27.0754L104.246 27.9529H105.383Z" fill="white"/>
<path d="M110.286 30.1394L109.193 26.2893H109.16C109.17 26.3892 109.18 26.5245 109.19 26.6951C109.202 26.8658 109.213 27.0498 109.222 27.2472C109.232 27.4447 109.237 27.6348 109.237 27.8176V30.1394H107.957V24.7938H109.881L110.996 28.5891H111.025L112.118 24.7938H114.045V30.1394H112.718V27.7957C112.718 27.6275 112.72 27.4471 112.725 27.2546C112.733 27.0595 112.74 26.8767 112.747 26.7061C112.757 26.533 112.766 26.3965 112.773 26.2966H112.74L111.661 30.1394H110.286Z" fill="white"/>
<path d="M115.047 24.7938H116.393V27.2399C116.393 27.3496 116.392 27.4654 116.389 27.5873C116.387 27.7067 116.383 27.8249 116.378 27.942C116.373 28.059 116.367 28.1699 116.36 28.2747C116.353 28.3795 116.344 28.4721 116.334 28.5526H116.364L118.565 24.7938H120.221V30.1394H118.872V27.8249C118.872 27.725 118.873 27.6117 118.875 27.4849C118.88 27.3581 118.885 27.2277 118.89 27.0937C118.897 26.9596 118.905 26.8304 118.912 26.7061C118.922 26.5818 118.932 26.4733 118.941 26.3807H118.908L116.707 30.1394H115.047V24.7938Z" fill="white"/>
<rect x="46.3873" y="0.248047" width="1.36434" height="31.752" fill="white"/>
</svg>
