<svg width="62" height="97" viewBox="0 0 62 97" fill="none" xmlns="http://www.w3.org/2000/svg">
<path fill-rule="evenodd" clip-rule="evenodd" d="M0 31.5828C0 14.1401 13.8792 0 31 0C48.1208 0 62 14.1401 62 31.5828C62 39.9174 58.4231 46.7669 54.8462 53.1422L32.7526 95.6297C32.0099 97.0578 29.9703 97.0682 29.2132 95.6477L6.55769 53.1422C3.57692 47.3742 0 39.9174 0 31.5828ZM29 9.82357L29.3006 9.11328C29.4572 8.74339 29.8199 8.50307 30.2215 8.50307H38.9648C39.8345 8.50307 40.4289 9.39847 40.105 10.2208L40.0306 10.4097C48.048 13.964 53.6538 22.1064 53.6538 31.5828C53.6538 44.3294 43.5114 54.6626 31 54.6626C28.5774 54.6626 26.2436 54.2751 24.0551 53.5578L23.802 53.9241C23.5719 54.2572 23.1971 54.4553 22.7974 54.4553H22.0967C21.2254 54.4553 20.631 53.557 20.9578 52.7342L21.1094 52.3526C13.554 48.6111 8.34615 40.7166 8.34615 31.5828C8.34615 19.2437 17.0429 10.4552 29 9.82357Z" fill="url(#paint0_linear_506_420)"/>
<path fill-rule="evenodd" clip-rule="evenodd" d="M38.9648 8.50307H30.2215C29.8199 8.50307 29.4572 8.74339 29.3006 9.11328L29 9.82357L29.2195 9.2791L28.4896 11.0893L27.9644 12.3919L20.9647 29.752C20.6326 30.5757 21.2271 31.4792 22.1011 31.4792H29.4004L22.4552 48.9645L22.0065 50.0942L21.1094 52.3526L20.9578 52.7342C20.631 53.557 21.2254 54.4553 22.0967 54.4553H22.7974C23.1971 54.4553 23.5719 54.2572 23.802 53.9241L24.0551 53.5578L25.5013 51.4642L26.2321 50.4064L44.1212 24.5111C44.6941 23.6818 44.1119 22.5391 43.1166 22.5391H35.2532L38.6975 13.7943L39.1419 12.6661L40.0306 10.4097L40.105 10.2208C40.4289 9.39847 39.8345 8.50307 38.9648 8.50307ZM30.4736 9.93349L30.062 10.9542L29.5589 12.2019L22.3629 30.0488H29.6607C30.532 30.0488 31.1263 30.9471 30.7995 31.7699L23.7337 49.5588L23.2863 50.6852L22.357 53.0249H22.7063L24.1009 51.0061L24.814 49.9738L42.7785 23.9695H34.9937C34.124 23.9695 33.5296 23.0741 33.8535 22.2518L37.3929 13.2654L37.8374 12.1369L38.7053 9.93349H30.4736Z" fill="url(#paint1_linear_506_420)"/>
<path d="M10.7308 31.5828C10.7308 39.6969 15.3243 46.718 22.0065 50.0942L22.4552 48.9645C16.2096 45.7714 11.9231 39.1871 11.9231 31.5828C11.9231 21.9014 18.8712 13.8733 27.9644 12.3919L28.4896 11.0893C18.4798 12.349 10.7308 21.044 10.7308 31.5828Z" fill="url(#paint2_linear_506_420)"/>
<path d="M31 52.2331C42.1944 52.2331 51.2692 42.9877 51.2692 31.5828C51.2692 23.1284 46.2823 15.8606 39.1419 12.6661L38.6975 13.7943C45.3994 16.8088 50.0769 23.6393 50.0769 31.5828C50.0769 42.3168 41.5359 51.0184 31 51.0184C29.3537 51.0184 27.756 50.8059 26.2321 50.4064L25.5013 51.4642C27.2499 51.9652 29.0942 52.2331 31 52.2331Z" fill="url(#paint3_linear_506_420)"/>
<path d="M31 15.7914H32.5795V17.4006H31V15.7914Z" fill="url(#paint4_linear_506_420)"/>
<path d="M32.5795 12.1369H34.1591V13.7462H32.5795V12.1369Z" fill="url(#paint5_linear_506_420)"/>
<path d="M29.6607 19.4356H31.2402V21.0448H29.6607V19.4356Z" fill="url(#paint6_linear_506_420)"/>
<defs>
<linearGradient id="paint0_linear_506_420" x1="-34.5" y1="-53.5" x2="85.4988" y2="-49.1019" gradientUnits="userSpaceOnUse">
<stop stop-color="#FFCC64"/>
<stop offset="1" stop-color="#FD5F70"/>
</linearGradient>
<linearGradient id="paint1_linear_506_420" x1="-34.5" y1="-53.5" x2="85.4988" y2="-49.1019" gradientUnits="userSpaceOnUse">
<stop stop-color="#FFCC64"/>
<stop offset="1" stop-color="#FD5F70"/>
</linearGradient>
<linearGradient id="paint2_linear_506_420" x1="-34.5" y1="-53.5" x2="85.4988" y2="-49.1019" gradientUnits="userSpaceOnUse">
<stop stop-color="#FFCC64"/>
<stop offset="1" stop-color="#FD5F70"/>
</linearGradient>
<linearGradient id="paint3_linear_506_420" x1="-34.5" y1="-53.5" x2="85.4988" y2="-49.1019" gradientUnits="userSpaceOnUse">
<stop stop-color="#FFCC64"/>
<stop offset="1" stop-color="#FD5F70"/>
</linearGradient>
<linearGradient id="paint4_linear_506_420" x1="-34.5" y1="-53.5" x2="85.4988" y2="-49.1019" gradientUnits="userSpaceOnUse">
<stop stop-color="#FFCC64"/>
<stop offset="1" stop-color="#FD5F70"/>
</linearGradient>
<linearGradient id="paint5_linear_506_420" x1="-34.5" y1="-53.5" x2="85.4988" y2="-49.1019" gradientUnits="userSpaceOnUse">
<stop stop-color="#FFCC64"/>
<stop offset="1" stop-color="#FD5F70"/>
</linearGradient>
<linearGradient id="paint6_linear_506_420" x1="-34.5" y1="-53.5" x2="85.4988" y2="-49.1019" gradientUnits="userSpaceOnUse">
<stop stop-color="#FFCC64"/>
<stop offset="1" stop-color="#FD5F70"/>
</linearGradient>
</defs>
</svg>
