<svg width="16" height="16" viewBox="0 0 16 16" fill="none" xmlns="http://www.w3.org/2000/svg">
<path d="M14.7368 16C15.4333 16 16 15.4333 16 14.7368V11.7895C16 11.0931 15.4333 10.5263 14.7368 10.5263C13.7516 10.5263 12.7832 10.3714 11.8568 10.0657C11.6354 9.99576 11.3992 9.98727 11.1733 10.0411C10.9474 10.0949 10.7404 10.2091 10.5743 10.3714L9.36168 11.584C7.26578 10.4462 5.54445 8.72542 4.40589 6.62989L5.60842 5.41979C5.95537 5.0981 6.08 4.60884 5.93179 4.13811C5.62673 3.21036 5.47207 2.23977 5.47368 1.26316C5.47368 0.566737 4.90695 0 4.21053 0H1.26316C0.566737 0 0 0.566737 0 1.26316C0 9.38947 6.61053 16 14.7368 16ZM1.26316 0.842105H4.21053C4.3222 0.842105 4.42929 0.886466 4.50826 0.965429C4.58722 1.04439 4.63158 1.15149 4.63158 1.26316C4.63158 2.33853 4.8 3.39453 5.13095 4.39579C5.15526 4.46845 5.15811 4.54658 5.13914 4.62081C5.12017 4.69504 5.08019 4.76223 5.024 4.81432L3.37684 6.46989C4.75537 9.18821 6.79158 11.2244 9.52253 12.6147L11.1638 10.9726C11.2198 10.9172 11.2898 10.8781 11.3664 10.8594C11.4429 10.8407 11.5231 10.8432 11.5983 10.8665C12.6055 11.2 13.6615 11.3684 14.7368 11.3684C14.9684 11.3684 15.1579 11.5579 15.1579 11.7895V14.7368C15.1579 14.9684 14.9684 15.1579 14.7368 15.1579C7.07537 15.1579 0.842105 8.92463 0.842105 1.26316C0.842105 1.15149 0.886466 1.04439 0.965429 0.965429C1.04439 0.886466 1.15149 0.842105 1.26316 0.842105Z" fill="white"/>
<path d="M1.26316 0.842105H4.21053C4.3222 0.842105 4.42929 0.886466 4.50826 0.965429C4.58722 1.04439 4.63158 1.15149 4.63158 1.26316C4.63158 2.33853 4.8 3.39453 5.13095 4.39579C5.15526 4.46845 5.15811 4.54658 5.13914 4.62081C5.12017 4.69504 5.08019 4.76223 5.024 4.81432L3.37684 6.46989C4.75537 9.18821 6.79158 11.2244 9.52253 12.6147L11.1638 10.9726C11.2198 10.9172 11.2898 10.8781 11.3664 10.8594C11.4429 10.8407 11.5231 10.8432 11.5983 10.8665C12.6055 11.2 13.6615 11.3684 14.7368 11.3684C14.9684 11.3684 15.1579 11.5579 15.1579 11.7895V14.7368C15.1579 14.9684 14.9684 15.1579 14.7368 15.1579C7.07537 15.1579 0.842105 8.92463 0.842105 1.26316C0.842105 1.15149 0.886466 1.04439 0.965429 0.965429C1.04439 0.886466 1.15149 0.842105 1.26316 0.842105Z" fill="white"/>
</svg>
