<svg width="23" height="18" viewBox="0 0 23 18" fill="none" xmlns="http://www.w3.org/2000/svg">
<path d="M22.0301 2.9339C21.2442 3.26982 20.4067 3.49248 19.5336 3.6006C20.4318 3.07805 21.1174 2.25691 21.4397 1.26717C20.6022 1.75367 19.6775 2.09732 18.6921 2.28909C17.8969 1.46409 16.7636 0.953125 15.5272 0.953125C13.1284 0.953125 11.1972 2.85024 11.1972 5.17595C11.1972 5.51059 11.2263 5.83235 11.2976 6.13867C7.69544 5.96749 4.50805 4.28531 2.36683 1.72278C1.99301 2.35473 1.77374 3.07805 1.77374 3.85672C1.77374 5.31881 2.54648 6.61488 3.69833 7.36523C3.0022 7.35236 2.31928 7.15544 1.74072 6.84526C1.74072 6.85813 1.74072 6.87486 1.74072 6.8916C1.74072 8.94316 3.24261 10.6472 5.21211 11.0398C4.85942 11.1337 4.47503 11.1788 4.07611 11.1788C3.79872 11.1788 3.51868 11.1633 3.25582 11.1067C3.81721 12.7786 5.41024 14.0077 7.30445 14.0476C5.8303 15.1712 3.95855 15.8482 1.93225 15.8482C1.57692 15.8482 1.23612 15.8328 0.895325 15.7903C2.81463 16.9963 5.08926 17.6848 7.54222 17.6848C15.5153 17.6848 19.8744 11.2496 19.8744 5.67147C19.8744 5.48484 19.8678 5.30466 19.8585 5.12576C20.7184 4.53114 21.441 3.78851 22.0301 2.9339Z" fill="#F96E27"/>
</svg>
