<svg width="18" height="18" viewBox="0 0 18 18" fill="none" xmlns="http://www.w3.org/2000/svg">
<path fill-rule="evenodd" clip-rule="evenodd" d="M12.8702 0.551197C14.0194 0.646392 15.0108 1.12003 15.7761 1.9396C16.4801 2.69342 16.8644 3.57362 16.9522 4.63323C17.002 5.23468 17.0033 12.2566 16.9537 12.855C16.8645 13.9307 16.4823 14.811 15.7761 15.5672C15.0078 16.39 14.0178 16.8604 12.8516 16.9571C12.2532 17.0067 5.23129 17.0054 4.62985 16.9556C3.56864 16.8677 2.667 16.47 1.90996 15.7558C1.11145 15.0025 0.641838 14.0089 0.547815 12.8735C0.496877 12.2586 0.496877 5.24815 0.547815 4.63323C0.569104 4.37593 0.63051 4.0003 0.684221 3.79846C1.15531 2.02858 2.73758 0.704205 4.56106 0.553541C5.12204 0.507212 12.3145 0.505142 12.8702 0.551197ZM4.16754 3.55053C4.60969 3.11538 4.71114 3.04284 4.98047 2.96932C5.14516 2.9244 5.45676 2.96338 5.66407 3.05483C5.91024 3.16342 7.57895 4.83093 7.69227 5.08151C7.79926 5.31819 7.8009 5.73987 7.69571 5.97163C7.65231 6.06729 7.44422 6.31905 7.21067 6.55858C6.98567 6.78929 6.78297 7.02706 6.7602 7.08702C6.70391 7.23503 6.70883 7.44311 6.77446 7.68964C7.15207 9.10808 9.22223 10.9609 10.2562 10.8058C10.4289 10.78 10.4805 10.7422 10.9057 10.33C11.4425 9.80964 11.5815 9.73167 11.9727 9.73167C12.4172 9.73167 12.487 9.77995 13.4843 10.7771C14.4818 11.7743 14.5458 11.8666 14.5454 12.3081C14.5452 12.5047 14.5224 12.606 14.444 12.7573C14.3169 13.0025 13.4741 13.8392 13.1336 14.0581C11.9775 14.8014 10.4731 14.723 8.70661 13.8276C7.67325 13.3039 6.75239 12.6191 5.79914 11.6654C4.29094 10.1566 3.32953 8.53237 3.02258 6.97464C2.92371 6.47292 2.93325 5.71034 3.04352 5.29636C3.22258 4.62436 3.47532 4.23178 4.16754 3.55053Z" fill="url(#paint0_radial_1026_8261)"/>
<path fill-rule="evenodd" clip-rule="evenodd" d="M1.48953 1.38741C2.21317 0.704009 3.12891 0.237408 4.08204 0.0664701C4.56493 -0.0201705 12.8836 -0.0230221 13.3836 0.063267C15.4578 0.421236 17.085 2.0426 17.4371 4.10206C17.4923 4.42534 17.5 4.99303 17.5 8.75339C17.5 12.5137 17.4923 13.0814 17.4371 13.4047C17.0868 15.4537 15.4504 17.0902 13.4013 17.4405C13.0781 17.4957 12.5104 17.5034 8.75 17.5034C4.98965 17.5034 4.42196 17.4957 4.09868 17.4405C2.04192 17.0889 0.417385 15.4584 0.0598849 13.3869C0.00855679 13.0896 2.05885e-06 12.4275 2.05885e-06 8.75339C2.05885e-06 4.81768 -0.00212666 4.26658 0.130514 3.75009C0.154515 3.65663 0.182928 3.56431 0.216565 3.45327C0.423088 2.77155 0.978792 1.86971 1.48953 1.38741ZM15.7761 1.9396C15.0108 1.12003 14.0194 0.646392 12.8702 0.551197C12.3145 0.505142 5.12204 0.507212 4.56106 0.553541C2.73758 0.704205 1.15531 2.02858 0.684221 3.79846C0.63051 4.0003 0.569104 4.37593 0.547815 4.63323C0.496877 5.24815 0.496877 12.2586 0.547815 12.8735C0.641838 14.0089 1.11145 15.0025 1.90996 15.7558C2.667 16.47 3.56864 16.8677 4.62985 16.9556C5.23129 17.0054 12.2532 17.0067 12.8516 16.9571C14.0178 16.8604 15.0078 16.39 15.7761 15.5672C16.4823 14.811 16.8645 13.9307 16.9537 12.855C17.0033 12.2566 17.002 5.23468 16.9522 4.63323C16.8644 3.57362 16.4801 2.69342 15.7761 1.9396Z" fill="url(#paint1_radial_1026_8261)"/>
<path fill-rule="evenodd" clip-rule="evenodd" d="M4.98047 2.96932C4.71114 3.04284 4.60969 3.11538 4.16754 3.55053C3.47532 4.23178 3.22258 4.62436 3.04352 5.29636C2.93325 5.71034 2.92371 6.47292 3.02258 6.97464C3.32953 8.53237 4.29094 10.1566 5.79914 11.6654C6.75239 12.6191 7.67325 13.3039 8.70661 13.8276C10.4731 14.723 11.9775 14.8014 13.1336 14.0581C13.4741 13.8392 14.3169 13.0025 14.444 12.7573C14.5224 12.606 14.5452 12.5047 14.5454 12.3081C14.5458 11.8666 14.4818 11.7743 13.4843 10.7771C12.487 9.77995 12.4172 9.73167 11.9727 9.73167C11.5815 9.73167 11.4425 9.80964 10.9057 10.33C10.4805 10.7422 10.4289 10.78 10.2562 10.8058C9.22223 10.9609 7.15207 9.10808 6.77446 7.68964C6.70883 7.44311 6.70391 7.23503 6.7602 7.08702C6.78297 7.02706 6.98567 6.78929 7.21067 6.55858C7.44422 6.31905 7.65231 6.06729 7.69571 5.97163C7.8009 5.73987 7.79926 5.31819 7.69227 5.08151C7.57895 4.83093 5.91024 3.16342 5.66407 3.05483C5.45676 2.96338 5.14516 2.9244 4.98047 2.96932ZM7.23848 5.41874C7.2045 5.24053 5.5502 3.57354 5.35301 3.51878C5.27704 3.49764 5.19727 3.48096 5.17579 3.48171C5.06563 3.48538 4.87832 3.61323 4.66864 3.82784L4.43493 4.06702L5.55676 5.18889L6.67864 6.31077L6.93383 6.05784C7.20368 5.79042 7.27918 5.63198 7.23848 5.41874ZM6.33594 6.71093L5.20922 5.5837C4.58957 4.96374 4.07106 4.45651 4.05707 4.45651C4.01723 4.45651 3.80301 4.80682 3.71067 5.02292C3.50567 5.50264 3.44926 6.26557 3.57203 6.89764C3.77301 7.93229 4.39575 9.1671 5.28196 10.2883C5.68043 10.7923 6.70051 11.8143 7.19329 12.2032C8.33524 13.1042 9.57653 13.7326 10.6058 13.9309C11.0188 14.0104 11.7081 14.01 12.0534 13.9301C12.3264 13.8669 12.7882 13.6598 12.9688 13.5195L13.0664 13.4436L11.9383 12.3139L10.8102 11.1841L10.6461 11.2567C10.2259 11.4426 9.70489 11.3759 9.06133 11.0537C8.53708 10.7912 8.10844 10.4675 7.59766 9.94796C6.66055 8.99487 6.1218 7.95487 6.18129 7.2137C6.19196 7.08104 6.2311 6.91366 6.26829 6.84171L6.33594 6.71093ZM13.1707 11.2407C12.7266 10.7932 12.3193 10.3959 12.2656 10.3578C12.008 10.1748 11.7775 10.2342 11.4459 10.569L11.1926 10.8248L12.3145 11.9467L13.4365 13.0686L13.6889 12.8183C14.2073 12.3046 14.1977 12.2753 13.1707 11.2407Z" fill="url(#paint2_radial_1026_8261)"/>
<defs>
<radialGradient id="paint0_radial_1026_8261" cx="0" cy="0" r="1" gradientUnits="userSpaceOnUse" gradientTransform="translate(8.75001 8.7517) rotate(88.8307) scale(12.2509 12.2485)">
<stop stop-color="#FF4F00"/>
<stop offset="1" stop-color="#FF8A56" stop-opacity="0.54"/>
</radialGradient>
<radialGradient id="paint1_radial_1026_8261" cx="0" cy="0" r="1" gradientUnits="userSpaceOnUse" gradientTransform="translate(8.75001 8.7517) rotate(88.8307) scale(12.2509 12.2485)">
<stop stop-color="#FF4F00"/>
<stop offset="1" stop-color="#FF8A56" stop-opacity="0.54"/>
</radialGradient>
<radialGradient id="paint2_radial_1026_8261" cx="0" cy="0" r="1" gradientUnits="userSpaceOnUse" gradientTransform="translate(8.75001 8.7517) rotate(88.8307) scale(12.2509 12.2485)">
<stop stop-color="#FF4F00"/>
<stop offset="1" stop-color="#FF8A56" stop-opacity="0.54"/>
</radialGradient>
</defs>
</svg>
