<svg width="16" height="19" viewBox="0 0 16 19" fill="none" xmlns="http://www.w3.org/2000/svg">
<path fill-rule="evenodd" clip-rule="evenodd" d="M12.8711 10.6445V17.9688H6.69922H0.527344V10.6445V3.32031H6.69922H12.8711V10.6445ZM7.67578 5.19531C7.54555 5.06508 7.59375 4.83602 7.76621 4.76527C7.81316 4.74605 8.63098 4.73383 9.58355 4.7382L11.3155 4.74609L11.3902 4.83832C11.4866 4.95734 11.4852 5.09684 11.3867 5.19531C11.3109 5.27113 11.2565 5.27344 9.53125 5.27344C7.80598 5.27344 7.7516 5.27113 7.67578 5.19531ZM2.01172 8.00781C1.87215 7.86824 1.94848 7.60359 2.13902 7.56633C2.18715 7.55691 4.27156 7.55133 6.77102 7.55391L11.3155 7.55859L11.3902 7.65082C11.4866 7.76984 11.4852 7.90934 11.3867 8.00781C11.3095 8.08504 11.2565 8.08594 6.69922 8.08594C2.14191 8.08594 2.08895 8.08504 2.01172 8.00781ZM2.01172 9.41406C1.87215 9.27449 1.94848 9.00984 2.13902 8.97258C2.18715 8.96316 4.27156 8.95758 6.77102 8.96016L11.3155 8.96484L11.3902 9.05707C11.4866 9.17609 11.4852 9.31559 11.3867 9.41406C11.3095 9.49129 11.2565 9.49219 6.69922 9.49219C2.14191 9.49219 2.08895 9.49129 2.01172 9.41406ZM2.01172 10.8203C1.87215 10.6807 1.94848 10.4161 2.13902 10.3788C2.18715 10.3694 4.27156 10.3638 6.77102 10.3664L11.3155 10.3711L11.3902 10.4633C11.4866 10.5823 11.4852 10.7218 11.3867 10.8203C11.3095 10.8975 11.2565 10.8984 6.69922 10.8984C2.14191 10.8984 2.08895 10.8975 2.01172 10.8203ZM2.01172 12.2266C1.87215 12.087 1.94848 11.8223 2.13902 11.7851C2.18715 11.7757 4.27156 11.7701 6.77102 11.7727L11.3155 11.7773L11.3902 11.8696C11.4866 11.9886 11.4852 12.1281 11.3867 12.2266C11.3095 12.3038 11.2565 12.3047 6.69922 12.3047C2.14191 12.3047 2.08895 12.3038 2.01172 12.2266ZM2.01172 13.6328C1.87215 13.4932 1.94848 13.2286 2.13902 13.1913C2.18715 13.1819 4.27156 13.1763 6.77102 13.1789L11.3155 13.1836L11.3902 13.2758C11.4866 13.3948 11.4852 13.5343 11.3867 13.6328C11.3095 13.71 11.2565 13.7109 6.69922 13.7109C2.14191 13.7109 2.08895 13.71 2.01172 13.6328ZM2.01172 15.0391C1.87215 14.8995 1.94848 14.6348 2.13902 14.5976C2.18715 14.5882 4.27156 14.5826 6.77102 14.5852L11.3155 14.5898L11.3902 14.6821C11.4866 14.8011 11.4852 14.9406 11.3867 15.0391C11.3095 15.1163 11.2565 15.1172 6.69922 15.1172C2.14191 15.1172 2.08895 15.1163 2.01172 15.0391ZM3.62855 16.3056C3.59848 16.1856 3.6975 16.0274 3.81738 16.0039C3.86625 15.9943 5.19539 15.9886 6.77105 15.9913L9.63582 15.9961L9.71051 16.0883C9.80687 16.2073 9.80551 16.3468 9.70703 16.4453C9.63031 16.522 9.57684 16.5234 6.70199 16.5234L6.22881 16.5235C4.01126 16.524 3.71905 16.5241 3.65535 16.4034C3.64568 16.3851 3.64127 16.364 3.6362 16.3398C3.63395 16.329 3.63158 16.3176 3.62855 16.3056Z" fill="url(#paint0_radial_1026_8256)"/>
<path fill-rule="evenodd" clip-rule="evenodd" d="M2.43598 0.0746484L2.34375 0.149258L2.3325 1.46137L2.32121 2.77344H1.23504C0.180391 2.77344 0.14668 2.77582 0.074414 2.85566C0.00175776 2.93594 0 3.12098 0 10.6521V18.3663L0.0922266 18.4409C0.182187 18.5138 0.343008 18.5156 6.69922 18.5156C13.0542 18.5156 13.2163 18.5138 13.3062 18.441L13.3984 18.3664L13.4097 17.0543L13.421 15.7422H14.5071C15.5618 15.7422 15.5955 15.7398 15.6678 15.66C15.7404 15.5797 15.7422 15.3946 15.7422 7.86355V0.149336L15.65 0.0746875C15.56 0.00183596 15.3992 0 9.04297 0C2.68797 0 2.52594 0.00183591 2.43598 0.0746484ZM15.2148 7.87109V15.1953H14.3164H13.418V9.0873V2.9793L13.337 2.87637L13.2561 2.77344H8.06355H2.87109V1.66016V0.546875H9.04297H15.2148V7.87109ZM12.8711 10.6445V17.9688H6.69922H0.527344V10.6445V3.32031H6.69922H12.8711V10.6445Z" fill="url(#paint1_radial_1026_8256)"/>
<defs>
<radialGradient id="paint0_radial_1026_8256" cx="0" cy="0" r="1" gradientUnits="userSpaceOnUse" gradientTransform="translate(6.5 10.5) rotate(85.0303) scale(11.5434 9.81432)">
<stop stop-color="#FF4F00"/>
<stop offset="1" stop-color="#FF8A56" stop-opacity="0.54"/>
</radialGradient>
<radialGradient id="paint1_radial_1026_8256" cx="0" cy="0" r="1" gradientUnits="userSpaceOnUse" gradientTransform="translate(6.5 10.5) rotate(85.0303) scale(11.5434 9.81432)">
<stop stop-color="#FF4F00"/>
<stop offset="1" stop-color="#FF8A56" stop-opacity="0.54"/>
</radialGradient>
</defs>
</svg>
