<svg width="13" height="20" viewBox="0 0 13 20" fill="none" xmlns="http://www.w3.org/2000/svg">
<path fill-rule="evenodd" clip-rule="evenodd" d="M4.14859 0.0705859C4.06226 0.156914 -0.000624927 9.90711 7.21009e-08 10.0264C0.000234447 10.0732 0.046758 10.148 0.103359 10.1925C0.205039 10.2725 0.236523 10.2734 2.68148 10.2734C4.29144 10.2734 5.15667 10.287 5.15667 10.3122C5.15667 10.3335 4.49835 12.4296 3.69378 14.9704C2.88918 17.5111 2.21953 19.6373 2.20566 19.6953C2.18613 19.777 2.20293 19.8232 2.28008 19.9004C2.41265 20.033 2.51359 20.0259 2.67293 19.873C2.78254 19.7679 12.1759 8.08352 12.6302 7.48723C12.793 7.27359 12.8056 7.19633 12.6992 7.06488L12.6245 6.97266L9.53323 6.95312L6.44191 6.93359L8.8071 3.65578C10.6092 1.15836 11.1723 0.351602 11.1723 0.267109C11.1723 0.206133 11.1371 0.121094 11.0942 0.078125C11.0173 0.00121094 10.964 0 7.61761 0C4.39214 0 4.21558 0.00359375 4.14859 0.0705859ZM9.87612 1.25977C8.84026 2.69324 6.61304 5.78023 6.12589 6.45773C5.85062 6.84055 5.62542 7.18578 5.62542 7.22488C5.62542 7.26402 5.65902 7.33754 5.70007 7.38824L5.77476 7.48047L8.84995 7.5L11.9252 7.51953L7.55757 12.9587C5.15539 15.9502 3.18515 18.393 3.17929 18.3872C3.17343 18.3814 3.76527 16.4963 4.49449 14.198C5.2237 11.8999 5.82042 9.99992 5.82054 9.97598C5.82066 9.95203 5.78441 9.88621 5.73999 9.82977L5.65925 9.72715L3.16586 9.71707L0.672499 9.70703L2.54304 5.21484C3.57187 2.74414 4.43101 0.683125 4.4523 0.634766L4.49093 0.546875H7.44112H10.3913L9.87612 1.25977Z" fill="url(#paint0_radial_1026_8252)"/>
<path d="M9.87612 1.25977C8.84026 2.69324 6.61304 5.78023 6.12589 6.45773C5.85062 6.84055 5.62542 7.18578 5.62542 7.22488C5.62542 7.26402 5.65902 7.33754 5.70007 7.38824L5.77476 7.48047L8.84995 7.5L11.9252 7.51953L7.55757 12.9587C5.15539 15.9502 3.18515 18.393 3.17929 18.3872C3.17343 18.3814 3.76527 16.4963 4.49449 14.198C5.2237 11.8999 5.82042 9.99992 5.82054 9.97598C5.82066 9.95203 5.78441 9.88621 5.73999 9.82977L5.65925 9.72715L3.16586 9.71707L0.672499 9.70703L2.54304 5.21484C3.57187 2.74414 4.43101 0.683125 4.4523 0.634766L4.49093 0.546875H7.44112H10.3913L9.87612 1.25977Z" fill="url(#paint1_radial_1026_8252)"/>
<defs>
<radialGradient id="paint0_radial_1026_8252" cx="0" cy="0" r="1" gradientUnits="userSpaceOnUse" gradientTransform="translate(5.5 9) rotate(87.3974) scale(11.0114 7.0317)">
<stop stop-color="#FF4F00"/>
<stop offset="1" stop-color="#FF8A56" stop-opacity="0.54"/>
</radialGradient>
<radialGradient id="paint1_radial_1026_8252" cx="0" cy="0" r="1" gradientUnits="userSpaceOnUse" gradientTransform="translate(5.5 9) rotate(87.3974) scale(11.0114 7.0317)">
<stop stop-color="#FF4F00"/>
<stop offset="1" stop-color="#FF8A56" stop-opacity="0.54"/>
</radialGradient>
</defs>
</svg>
