<svg width="14" height="19" viewBox="0 0 14 19" fill="none" xmlns="http://www.w3.org/2000/svg">
<path fill-rule="evenodd" clip-rule="evenodd" d="M7.42188 0.148455C6.08098 0.842362 5.18067 2.57357 5.26742 4.29115C5.28942 4.72595 5.31801 4.9081 5.48832 5.6974C5.60309 6.2292 5.6327 6.99767 5.5543 7.40904C5.40125 8.21228 4.96973 8.66841 4.36008 8.67134C3.29735 8.67642 2.74969 7.66912 2.90625 5.99736C2.95313 5.49685 2.9527 5.49045 2.86691 5.39912C2.68957 5.21033 2.55133 5.28709 2.10664 5.82138C1.52535 6.51982 0.896016 7.57752 0.569219 8.40537C0.372031 8.90482 0.189961 9.55095 0.093945 10.0919C-0.030391 10.7926 -0.0314459 11.9055 0.091601 12.5814C0.785508 16.3931 4.41891 18.921 8.21868 18.2358C11.0808 17.7196 13.3261 15.4668 13.8564 12.5794C13.9748 11.9349 13.9745 10.6868 13.8558 10.0333C13.7041 9.19771 13.5039 8.60166 13.1182 7.83744C12.5601 6.7317 11.889 5.88361 10.3732 4.36845C9.26336 3.25908 9.02715 2.97017 8.66883 2.28408C8.33411 1.64314 8.16598 1.10478 8.10954 0.493221C8.08188 0.193299 8.06243 0.123885 7.98942 0.0647836C7.86129 -0.0389664 7.75332 -0.0230289 7.42188 0.148455ZM7.64735 1.09623C7.827 1.98541 8.33207 2.97443 8.99438 3.73385C9.13266 3.89236 9.65446 4.42982 10.154 4.9281C11.1815 5.95322 11.5906 6.42709 12.094 7.17509C13.4852 9.24248 13.7946 11.6006 12.9559 13.7443C12.3365 15.3277 10.9937 16.6878 9.42942 17.3161C8.89368 17.5313 8.89868 17.5313 9.06696 17.3121C9.24524 17.0798 9.45001 16.6545 9.53399 16.3419C9.61688 16.0336 9.61629 15.31 9.53282 14.8966C9.28782 13.6833 8.56668 12.4456 7.49028 11.3908C7.15825 11.0654 7.08293 11.0099 6.97348 11.0099C6.86403 11.0099 6.78871 11.0654 6.45668 11.3908C5.22809 12.5947 4.47446 14.0138 4.36285 15.3336C4.29535 16.1319 4.45051 16.7282 4.8727 17.2932C5.05149 17.5324 5.05973 17.5315 4.5516 17.3315C2.97309 16.7102 1.6168 15.3439 0.991172 13.7447C0.33 12.0547 0.384687 10.2589 1.15254 8.44377C1.37367 7.92095 1.80418 7.14658 2.11274 6.71658L2.31059 6.44084L2.35609 6.91873C2.43527 7.74951 2.63043 8.26634 3.01875 8.67341C3.39235 9.06509 3.85746 9.2367 4.45973 9.20509C5.2468 9.16376 5.84516 8.58712 6.06258 7.66045C6.11504 7.43685 6.13336 7.20416 6.13258 6.77162C6.13149 6.16302 6.09684 5.89427 5.9261 5.17006C5.8368 4.79123 5.825 4.65947 5.82641 4.05677C5.82781 3.44763 5.83903 3.33189 5.9293 2.99404C6.11528 2.29803 6.43508 1.71463 6.89758 1.22771C7.16864 0.942401 7.51207 0.676072 7.55438 0.718416C7.56586 0.729901 7.6077 0.899901 7.64735 1.09623ZM7.29489 11.9572C7.93922 12.674 8.26567 13.145 8.5961 13.8347C8.95567 14.5852 9.13168 15.4142 9.04965 15.9708C8.88379 17.0961 7.92633 17.8778 6.81723 17.7933C5.79563 17.7155 5.00231 16.9345 4.88488 15.8911C4.85289 15.607 4.92645 15.0189 5.04594 14.6038C5.22555 13.9796 5.68899 13.1235 6.17856 12.5113C6.4418 12.1822 6.93938 11.6349 6.97536 11.6349C6.99176 11.6349 7.13555 11.7799 7.29489 11.9572Z" fill="url(#paint0_radial_1026_8255)"/>
<path d="M7.64735 1.09623C7.827 1.98541 8.33207 2.97443 8.99438 3.73385C9.13266 3.89236 9.65446 4.42982 10.154 4.9281C11.1815 5.95322 11.5906 6.42709 12.094 7.17509C13.4852 9.24248 13.7946 11.6006 12.9559 13.7443C12.3365 15.3277 10.9937 16.6878 9.42942 17.3161C8.89368 17.5313 8.89868 17.5313 9.06696 17.3121C9.24524 17.0798 9.45001 16.6545 9.53399 16.3419C9.61688 16.0336 9.61629 15.31 9.53282 14.8966C9.28782 13.6833 8.56668 12.4456 7.49028 11.3908C7.15825 11.0654 7.08293 11.0099 6.97348 11.0099C6.86403 11.0099 6.78871 11.0654 6.45668 11.3908C5.22809 12.5947 4.47446 14.0138 4.36285 15.3336C4.29535 16.1319 4.45051 16.7282 4.8727 17.2932C5.05149 17.5324 5.05973 17.5315 4.5516 17.3315C2.97309 16.7102 1.6168 15.3439 0.991172 13.7447C0.33 12.0547 0.384687 10.2589 1.15254 8.44377C1.37367 7.92095 1.80418 7.14658 2.11274 6.71658L2.31059 6.44084L2.35609 6.91873C2.43527 7.74951 2.63043 8.26634 3.01875 8.67341C3.39235 9.06509 3.85746 9.2367 4.45973 9.20509C5.2468 9.16376 5.84516 8.58712 6.06258 7.66045C6.11504 7.43685 6.13336 7.20416 6.13258 6.77162C6.13149 6.16302 6.09684 5.89427 5.9261 5.17006C5.8368 4.79123 5.825 4.65947 5.82641 4.05677C5.82781 3.44763 5.83903 3.33189 5.9293 2.99404C6.11528 2.29803 6.43508 1.71463 6.89758 1.22771C7.16864 0.942401 7.51207 0.676072 7.55438 0.718416C7.56586 0.729901 7.6077 0.899901 7.64735 1.09623Z" fill="url(#paint1_radial_1026_8255)"/>
<defs>
<radialGradient id="paint0_radial_1026_8255" cx="0" cy="0" r="1" gradientUnits="userSpaceOnUse" gradientTransform="translate(7 12) rotate(83.991) scale(9.55249 7.26023)">
<stop stop-color="#FF4F00"/>
<stop offset="1" stop-color="#FF8A56" stop-opacity="0.54"/>
</radialGradient>
<radialGradient id="paint1_radial_1026_8255" cx="0" cy="0" r="1" gradientUnits="userSpaceOnUse" gradientTransform="translate(7 12) rotate(83.991) scale(9.55249 7.26023)">
<stop stop-color="#FF4F00"/>
<stop offset="1" stop-color="#FF8A56" stop-opacity="0.54"/>
</radialGradient>
</defs>
</svg>
