<svg width="20" height="20" viewBox="0 0 20 20" fill="none" xmlns="http://www.w3.org/2000/svg">
<path fill-rule="evenodd" clip-rule="evenodd" d="M8.08571 7.2038C9.33568 7.5023 10.2257 7.99684 11.1174 8.8884C12.0096 9.78034 12.5061 10.6737 12.8018 11.9194C12.9359 12.4842 12.9705 13.5022 12.8772 14.1359C12.4949 16.732 10.5254 18.7882 7.91874 19.3129C7.29213 19.439 6.18212 19.4376 5.58428 19.3099C5.0331 19.1921 4.45648 18.996 4.02581 18.7797C3.8305 18.6816 3.63066 18.6014 3.58176 18.6014C3.53287 18.6014 3.36551 18.6972 3.20987 18.8142C2.69211 19.2036 2.23592 19.3717 1.59129 19.4103C1.07365 19.4414 1.03538 19.4202 1.27185 19.2333C1.5087 19.0461 1.78144 18.7444 1.96834 18.4629C2.13859 18.2065 2.34023 17.775 2.34023 17.667C2.34023 17.625 2.21985 17.4444 2.07274 17.2656C1.32918 16.3624 0.876895 15.4108 0.673849 14.3226C0.565701 13.7428 0.573205 12.6755 0.689561 12.0943C1.13263 9.88139 2.63958 8.14521 4.76959 7.39359C5.04725 7.29559 5.44963 7.19993 6.01421 7.09763C6.06795 7.0879 6.46369 7.08575 6.89362 7.09286C7.56369 7.10396 7.73391 7.11978 8.08571 7.2038ZM3.63523 11.9822C3.66357 11.9201 3.73994 11.846 3.80498 11.8177C3.86998 11.7893 3.92493 11.7655 3.92712 11.7647C3.92927 11.7638 3.98696 11.7826 4.05532 11.8064C4.12368 11.8303 4.2036 11.8962 4.23292 11.953C4.35291 12.1852 5.15434 14.3472 5.15434 14.4387C5.15434 14.656 4.86543 14.7725 4.69107 14.6254C4.64648 14.5878 4.578 14.4691 4.53895 14.3617L4.4679 14.1663H3.94271H3.41753L3.34647 14.3617C3.30743 14.4691 3.23895 14.5878 3.19435 14.6254C3.01816 14.774 2.73108 14.6556 2.73108 14.4343C2.73108 14.3482 3.46904 12.3468 3.63523 11.9822ZM5.78224 11.9147C5.80515 11.8719 5.86233 11.8214 5.90927 11.8025C6.05185 11.745 6.72415 11.7576 6.94021 11.8218C7.26493 11.9182 7.53747 12.2781 7.53829 12.6117C7.5384 12.6593 7.5114 12.7781 7.47821 12.8758C7.41927 13.0494 7.42009 13.0563 7.51609 13.1821C7.82806 13.5911 7.80664 14.0762 7.46145 14.4214C7.22807 14.6547 7.0799 14.6938 6.42984 14.6938C5.94906 14.6938 5.8893 14.6862 5.81879 14.6157C5.74382 14.5407 5.74062 14.4854 5.74062 13.265C5.74062 12.4393 5.75523 11.9651 5.78224 11.9147ZM8.45209 12.6337C8.64834 12.2089 9.07479 11.8793 9.52681 11.8029C9.53472 11.8015 9.54237 11.8002 9.54979 11.799C9.66468 11.7795 9.72156 11.7699 9.77834 11.7705C9.83402 11.771 9.88961 11.7813 9.9997 11.8017C10.0068 11.803 10.0142 11.8044 10.0218 11.8058C10.2561 11.8491 10.512 11.9578 10.636 12.0668C10.7447 12.1624 10.7276 12.4105 10.6068 12.4896C10.496 12.5621 10.405 12.5517 10.0602 12.4268C9.70277 12.2975 9.36691 12.3856 9.11212 12.6757C8.95367 12.8562 8.89422 13.0517 8.91411 13.3268C8.94558 13.7618 9.26349 14.0723 9.70617 14.1005C9.96874 14.1172 10.0854 14.0767 10.294 13.8965C10.4787 13.7369 10.6795 13.7659 10.7629 13.9642C10.8339 14.1331 10.7712 14.2783 10.5565 14.4422C9.89354 14.9483 8.8556 14.6685 8.46679 13.8789C8.35043 13.6426 8.33976 13.5896 8.33976 13.2488C8.33976 12.9215 8.35328 12.8476 8.45209 12.6337Z" fill="url(#paint0_radial_1026_8269)"/>
<path d="M7.05172 13.5393C7.11797 13.6055 7.14767 13.6787 7.14767 13.7755C7.14767 13.8724 7.11797 13.9456 7.05172 14.0118C6.96577 14.0977 6.92309 14.1077 6.64133 14.1077H6.32689V13.7755V13.4434H6.64133C6.92309 13.4434 6.96577 13.4534 7.05172 13.5393Z" fill="url(#paint1_radial_1026_8269)"/>
<path d="M6.84926 12.4303C6.97304 12.5276 6.98316 12.67 6.87408 12.7791C6.81326 12.8399 6.74381 12.8573 6.5614 12.8573H6.32689V12.6033V12.3493H6.53658C6.68956 12.3493 6.77414 12.3712 6.84926 12.4303Z" fill="url(#paint2_radial_1026_8269)"/>
<path d="M4.09233 13.1835C4.16053 13.363 4.21631 13.5213 4.21631 13.5352C4.21631 13.5492 4.09319 13.5606 3.94271 13.5606C3.79224 13.5606 3.66912 13.5492 3.66912 13.5352C3.66912 13.477 3.91918 12.8573 3.94271 12.8573C3.95682 12.8573 4.02417 13.0041 4.09233 13.1835Z" fill="url(#paint3_radial_1026_8269)"/>
<path fill-rule="evenodd" clip-rule="evenodd" d="M12.6586 0.0268512C11.0916 0.176082 9.67783 0.819739 8.56661 1.88979C7.58796 2.83219 6.97855 3.8927 6.65833 5.21058C6.56171 5.60825 6.56836 5.71587 6.6962 5.82196C6.78934 5.89921 6.98375 5.88815 7.06731 5.80082C7.10671 5.75963 7.16944 5.58524 7.20669 5.4133C7.45312 4.2769 8.00281 3.28656 8.86651 2.42314C9.71829 1.5716 10.5811 1.07268 11.7011 0.784024C14.2567 0.125361 16.9801 1.18701 18.4141 3.4009C18.8524 4.07749 19.1306 4.75855 19.3082 5.58914C19.4353 6.18376 19.4373 7.29692 19.3125 7.91639C19.0914 9.0136 18.6323 9.96412 17.9169 10.8057C17.772 10.9761 17.6615 11.1431 17.6615 11.1915C17.6615 11.3051 17.8939 11.7849 18.0857 12.0673C18.1704 12.1921 18.3922 12.4384 18.5786 12.6147L18.9174 12.9354H18.5302C17.8683 12.9354 17.2316 12.7084 16.7237 12.2912C16.6057 12.1942 16.4778 12.1148 16.4395 12.1148C16.4013 12.1148 16.234 12.183 16.0679 12.2662C15.6472 12.4771 15.0609 12.6904 14.6382 12.7864C14.2395 12.877 14.1308 12.9508 14.1308 13.1308C14.1308 13.2997 14.2586 13.4185 14.4331 13.412C14.7352 13.4006 15.561 13.1469 16.0653 12.9104L16.3647 12.77L16.6702 12.9705C17.5505 13.5483 18.7427 13.6859 19.7154 13.3221C19.8731 13.2631 19.9315 13.2178 19.9702 13.1242C20.0481 12.9364 19.9631 12.8285 19.5756 12.623C19.1644 12.405 18.6411 11.9057 18.434 11.5338L18.2955 11.285L18.6167 10.8608C20.567 8.2853 20.4439 4.75894 18.3181 2.30771C16.9466 0.72627 14.7232 -0.169818 12.6586 0.0268512ZM5.79924 6.5467C4.36749 6.77635 3.13795 7.37429 2.12339 8.33422C-0.454336 10.7732 -0.718081 14.7348 1.51292 17.5039L1.71484 17.7545L1.61142 17.9337C1.26767 18.5295 0.891317 18.8681 0.17153 19.2291C0.107313 19.2613 0.037547 19.3367 0.0164802 19.3966C-0.0742358 19.6544 0.208309 19.8326 0.899329 19.9533C1.74235 20.1006 2.67632 19.8949 3.39552 19.4037L3.61049 19.2569L3.76683 19.3179C3.85282 19.3515 4.07267 19.4404 4.25539 19.5155C4.68009 19.69 5.14899 19.8246 5.6429 19.9139C6.16535 20.0084 7.32187 20.0111 7.85167 19.9192C8.87765 19.7412 9.86192 19.3316 10.7239 18.7241C11.1294 18.4383 11.9502 17.6164 12.2447 17.2012C13.3966 15.5772 13.7919 13.5857 13.3398 11.685C12.7257 9.10304 10.6842 7.14003 8.05159 6.59988C7.54255 6.49547 6.30145 6.46616 5.79924 6.5467ZM8.08571 7.2038C9.33568 7.5023 10.2257 7.99684 11.1174 8.8884C12.0096 9.78034 12.5061 10.6737 12.8018 11.9194C12.9359 12.4842 12.9705 13.5022 12.8772 14.1359C12.4949 16.732 10.5254 18.7882 7.91874 19.3129C7.29213 19.439 6.18212 19.4376 5.58428 19.3099C5.0331 19.1921 4.45648 18.996 4.02581 18.7797C3.8305 18.6816 3.63066 18.6014 3.58176 18.6014C3.53287 18.6014 3.36551 18.6972 3.20987 18.8142C2.69211 19.2036 2.23592 19.3717 1.59129 19.4103C1.07365 19.4414 1.03538 19.4202 1.27185 19.2333C1.5087 19.0461 1.78144 18.7444 1.96834 18.4629C2.13859 18.2065 2.34023 17.775 2.34023 17.667C2.34023 17.625 2.21985 17.4444 2.07274 17.2656C1.32918 16.3624 0.876895 15.4108 0.673849 14.3226C0.565701 13.7428 0.573205 12.6755 0.689561 12.0943C1.13263 9.88139 2.63958 8.14521 4.76959 7.39359C5.04725 7.29559 5.44963 7.19993 6.01421 7.09763C6.06795 7.0879 6.46369 7.08575 6.89362 7.09286C7.56369 7.10396 7.73391 7.11978 8.08571 7.2038Z" fill="url(#paint4_radial_1026_8269)"/>
<defs>
<radialGradient id="paint0_radial_1026_8269" cx="0" cy="0" r="1" gradientUnits="userSpaceOnUse" gradientTransform="translate(7.5 13.5) rotate(56.3099) scale(9.01388)">
<stop stop-color="#FF4F00"/>
<stop offset="1" stop-color="#FF8A56" stop-opacity="0.54"/>
</radialGradient>
<radialGradient id="paint1_radial_1026_8269" cx="0" cy="0" r="1" gradientUnits="userSpaceOnUse" gradientTransform="translate(7.5 13.5) rotate(56.3099) scale(9.01388)">
<stop stop-color="#FF4F00"/>
<stop offset="1" stop-color="#FF8A56" stop-opacity="0.54"/>
</radialGradient>
<radialGradient id="paint2_radial_1026_8269" cx="0" cy="0" r="1" gradientUnits="userSpaceOnUse" gradientTransform="translate(7.5 13.5) rotate(56.3099) scale(9.01388)">
<stop stop-color="#FF4F00"/>
<stop offset="1" stop-color="#FF8A56" stop-opacity="0.54"/>
</radialGradient>
<radialGradient id="paint3_radial_1026_8269" cx="0" cy="0" r="1" gradientUnits="userSpaceOnUse" gradientTransform="translate(7.5 13.5) rotate(56.3099) scale(9.01388)">
<stop stop-color="#FF4F00"/>
<stop offset="1" stop-color="#FF8A56" stop-opacity="0.54"/>
</radialGradient>
<radialGradient id="paint4_radial_1026_8269" cx="0" cy="0" r="1" gradientUnits="userSpaceOnUse" gradientTransform="translate(7.5 13.5) rotate(56.3099) scale(9.01388)">
<stop stop-color="#FF4F00"/>
<stop offset="1" stop-color="#FF8A56" stop-opacity="0.54"/>
</radialGradient>
</defs>
</svg>
