<svg width="298" height="174" viewBox="0 0 298 174" fill="none" xmlns="http://www.w3.org/2000/svg">
<path d="M150.066 1.52794C149.525 1.13204 148.887 0.889281 148.22 0.825191C147.553 0.7611 146.88 0.878055 146.274 1.16374L46.176 59.3173C46.7824 59.0316 47.4546 58.9147 48.1218 58.9788C48.789 59.0429 49.4266 59.2856 49.9676 59.6815L64.5273 68.0889L164.625 9.93529L150.066 1.52794Z" fill="#312F2C"/>
<path d="M164.595 9.93555L64.588 68.0891L91.0988 89.4566L191.136 31.303L164.595 9.93555Z" fill="#393532"/>
<path d="M74.9618 68.878L164.049 17.0679L180.762 30.5136L91.6448 82.3237L74.9618 68.878Z" fill="#788EFF"/>
<g style="mix-blend-mode:multiply" opacity="0.4">
<path d="M163.988 19.6781L178.821 31.6366L180.762 30.5136L164.049 17.0679L74.9618 68.878L76.8121 70.3652L163.988 19.6781Z" fill="#4A62AF"/>
</g>
<path d="M297.725 95.8606C297.725 95.8606 297.725 95.6481 297.725 95.557C297.621 95.1637 297.489 94.7783 297.331 94.4036C297.149 94.0091 296.967 93.7056 296.785 93.3717L296.603 93.0986C296.421 92.8557 296.269 92.6129 296.087 92.4004V92.2487L295.541 91.7023L295.299 91.4899C295.06 91.2886 294.807 91.1059 294.54 90.9435L191.409 31.3027L91.3112 89.4563L194.442 149.097C194.714 149.252 194.968 149.435 195.201 149.643L195.443 149.856L195.898 150.311L196.111 150.554C196.293 150.797 196.475 151.009 196.626 151.252L196.808 151.556C197.01 151.852 197.182 152.167 197.324 152.496C197.51 152.895 197.653 153.312 197.749 153.741C197.763 153.831 197.763 153.924 197.749 154.014C197.791 154.397 197.791 154.784 197.749 155.167V158.203C197.793 158.639 197.72 159.08 197.539 159.48C197.358 159.879 197.075 160.224 196.717 160.479L296.815 102.295C297.172 102.047 297.457 101.708 297.638 101.313C297.819 100.918 297.891 100.481 297.847 100.049V97.0138C297.849 96.6261 297.808 96.2393 297.725 95.8606V95.8606Z" fill="#312F2C"/>
<path d="M295.905 92.249L195.807 150.403C196.37 151.047 196.83 151.774 197.172 152.558L297.27 94.404C296.924 93.6223 296.464 92.8962 295.905 92.249V92.249Z" fill="#393532"/>
<path d="M194.321 149.097L91.1898 89.4565L64.679 68.2104L50.1193 59.803C47.0861 58.1033 44.7808 59.4692 44.7808 62.8382V67.6337C44.8965 69.4636 45.4398 71.2407 46.367 72.8222C47.2942 74.4037 48.5795 75.7453 50.1193 76.7391L194.291 160.145C196.232 161.268 197.84 160.358 197.84 158.112V155.077C197.756 153.875 197.395 152.71 196.784 151.672C196.174 150.634 195.33 149.753 194.321 149.097Z" fill="#252321"/>
<g style="mix-blend-mode:multiply" opacity="0.7">
<path d="M164.17 35.3704V36.4631H163.109L155.829 30.2107V29.4822L157.345 29.634L164.17 35.3704ZM159.802 27.2058V26.1436H158.741L155.708 27.8129V28.5413L157.224 28.6931L159.802 27.2058ZM161.107 27.3576L168.053 33.1244H169.63V32.3656L162.168 26.2953H161.107V27.3576ZM165.475 35.4918V36.6148H166.506L169.539 34.8544V34.1259L167.962 33.9742L165.475 35.4918ZM171.541 31.6372L173.149 32.9423L174.514 32.1531L172.755 30.9391L171.541 31.6372Z" fill="#4A62AF"/>
</g>
<path d="M280.102 90.8529L272.64 95.2236C271.639 95.7327 270.532 95.9981 269.41 95.9981C268.287 95.9981 267.18 95.7327 266.179 95.2236L244.946 83.083C244.576 82.9168 244.258 82.6546 244.023 82.3238C243.788 81.9929 243.646 81.6054 243.612 81.2012V83.3561C243.64 83.7622 243.779 84.1527 244.015 84.4847C244.25 84.8166 244.573 85.0773 244.946 85.238L266.179 97.3786C267.18 97.8877 268.287 98.1531 269.41 98.1531C270.532 98.1531 271.639 97.8877 272.64 97.3786L280.102 93.008C280.468 92.8443 280.784 92.5868 281.018 92.2617C281.252 91.9366 281.397 91.5553 281.437 91.1565V89.0015C281.397 89.4004 281.252 89.7817 281.018 90.1068C280.784 90.4319 280.468 90.6893 280.102 90.8529V90.8529Z" fill="#252321"/>
<path d="M280.072 87.0895L258.839 74.9488C257.84 74.4325 256.732 74.1631 255.608 74.1631C254.484 74.1631 253.377 74.4325 252.378 74.9488L244.916 79.2891C244.527 79.4223 244.189 79.6738 243.95 80.0085C243.711 80.3432 243.583 80.7444 243.583 81.1558C243.583 81.5672 243.711 81.9682 243.95 82.3029C244.189 82.6376 244.527 82.8892 244.916 83.0224L266.149 95.163C267.15 95.6721 268.257 95.9375 269.379 95.9375C270.502 95.9375 271.609 95.6721 272.61 95.163L280.072 90.7923C280.438 90.641 280.751 90.3842 280.971 90.0546C281.192 89.725 281.309 89.3374 281.309 88.9409C281.309 88.5443 281.192 88.1568 280.971 87.8272C280.751 87.4976 280.438 87.2408 280.072 87.0895V87.0895Z" fill="#393532"/>
<path d="M247.07 71.7618L239.577 76.1324C238.574 76.6346 237.468 76.8959 236.347 76.8959C235.225 76.8959 234.119 76.6346 233.116 76.1324L228.506 73.4311C228.14 73.2598 227.824 72.9963 227.59 72.6664C227.356 72.3366 227.212 71.9517 227.171 71.5493V73.7042C227.215 74.1058 227.36 74.4895 227.594 74.8189C227.828 75.1483 228.142 75.4123 228.506 75.586L233.116 78.2266C234.117 78.7357 235.224 79.0011 236.347 79.0011C237.47 79.0011 238.577 78.7357 239.577 78.2266L247.07 73.856C247.431 73.6908 247.743 73.4322 247.972 73.1069C248.201 72.7816 248.34 72.4011 248.374 72.0045V69.8496C248.341 70.2542 248.204 70.6433 247.975 70.9786C247.746 71.3139 247.434 71.5838 247.07 71.7618V71.7618Z" fill="#252321"/>
<path d="M247.039 67.9976L242.429 65.3571C241.428 64.8479 240.321 64.5825 239.198 64.5825C238.076 64.5825 236.969 64.8479 235.968 65.3571L228.506 69.7277C228.117 69.8609 227.779 70.1124 227.54 70.4471C227.301 70.7818 227.173 71.1829 227.173 71.5943C227.173 72.0057 227.301 72.4068 227.54 72.7415C227.779 73.0762 228.117 73.3278 228.506 73.461L233.117 76.1319C234.119 76.6341 235.226 76.8954 236.347 76.8954C237.468 76.8954 238.575 76.6341 239.577 76.1319L247.07 71.7613C247.454 71.6174 247.785 71.3586 248.018 71.0201C248.25 70.6816 248.373 70.2797 248.37 69.8688C248.367 69.458 248.237 69.0582 247.999 68.7234C247.761 68.3887 247.426 68.1353 247.039 67.9976V67.9976Z" fill="#393532"/>
<path d="M230.538 62.231L223.107 66.5713C222.106 67.0804 220.999 67.3458 219.876 67.3458C218.754 67.3458 217.647 67.0804 216.646 66.5713L212.035 63.9003C211.669 63.729 211.354 63.4656 211.12 63.1358C210.886 62.8059 210.741 62.4209 210.701 62.0185V64.3253C210.741 64.7277 210.886 65.1127 211.12 65.4425C211.354 65.7724 211.669 66.0358 212.035 66.2071L216.646 68.878C217.647 69.3872 218.754 69.6526 219.876 69.6526C220.999 69.6526 222.106 69.3872 223.107 68.878L230.538 64.3253C230.9 64.16 231.212 63.9014 231.441 63.5761C231.67 63.2508 231.809 62.8704 231.843 62.4739V60.3188C231.804 60.7218 231.664 61.1085 231.436 61.4429C231.208 61.7772 230.899 62.0484 230.538 62.231V62.231Z" fill="#252321"/>
<path d="M230.508 58.4675L225.897 55.7965C224.896 55.2874 223.79 55.022 222.667 55.022C221.544 55.022 220.437 55.2874 219.436 55.7965L211.975 60.1671C211.586 60.3003 211.248 60.5519 211.009 60.8866C210.77 61.2213 210.641 61.6223 210.641 62.0337C210.641 62.4451 210.77 62.8463 211.009 63.181C211.248 63.5157 211.586 63.7671 211.975 63.9003L216.585 66.5713C217.586 67.0804 218.693 67.3458 219.816 67.3458C220.938 67.3458 222.045 67.0804 223.046 66.5713L230.538 62.231C230.923 62.0871 231.254 61.8283 231.486 61.4898C231.719 61.1513 231.842 60.7494 231.839 60.3386C231.835 59.9278 231.706 59.5279 231.468 59.1932C231.23 58.8585 230.895 58.6052 230.508 58.4675V58.4675Z" fill="#393532"/>
<path d="M214.007 52.6704L206.545 57.041C205.537 57.5435 204.426 57.805 203.3 57.805C202.173 57.805 201.062 57.5435 200.054 57.041L195.443 54.37C195.074 54.2038 194.755 53.9417 194.52 53.6109C194.285 53.28 194.143 52.8925 194.109 52.4883V54.6432C194.143 55.0474 194.285 55.435 194.52 55.7658C194.755 56.0967 195.074 56.3588 195.443 56.525L200.054 59.1959C201.055 59.7051 202.162 59.9705 203.284 59.9705C204.407 59.9705 205.514 59.7051 206.515 59.1959L214.007 54.8253C214.373 54.6575 214.687 54.3943 214.917 54.0633C215.146 53.7322 215.283 53.3454 215.311 52.9435V50.7886C215.274 51.1879 215.134 51.5707 214.905 51.9003C214.677 52.2298 214.368 52.495 214.007 52.6704V52.6704Z" fill="#252321"/>
<path d="M214.007 48.9072L209.366 46.1148C208.367 45.5985 207.26 45.3291 206.136 45.3291C205.012 45.3291 203.904 45.5985 202.905 46.1148L195.443 50.4551C195.054 50.5883 194.717 50.8398 194.478 51.1745C194.239 51.5092 194.11 51.9104 194.11 52.3218C194.11 52.7332 194.239 53.1342 194.478 53.4689C194.717 53.8036 195.054 54.0552 195.443 54.1884L200.054 56.8593C201.062 57.3618 202.173 57.6233 203.3 57.6233C204.426 57.6233 205.537 57.3618 206.545 56.8593L214.007 52.6708C214.393 52.53 214.726 52.2739 214.961 51.9373C215.196 51.6007 215.323 51.1998 215.323 50.789C215.323 50.3782 215.196 49.9773 214.961 49.6407C214.726 49.3041 214.393 49.0481 214.007 48.9072V48.9072Z" fill="#393532"/>
<path d="M197.476 43.0795L190.014 47.4502C189.011 47.9523 187.905 48.2138 186.783 48.2138C185.662 48.2138 184.556 47.9523 183.553 47.4502L182.218 46.6914C181.852 46.5201 181.537 46.2566 181.303 45.9268C181.069 45.5969 180.924 45.212 180.884 44.8096V46.9645C180.927 47.3661 181.073 47.7498 181.306 48.0792C181.54 48.4086 181.854 48.6726 182.218 48.8463L183.523 49.5748C184.523 50.0839 185.63 50.3493 186.753 50.3493C187.876 50.3493 188.983 50.0839 189.983 49.5748L197.476 45.2042C197.837 45.0389 198.149 44.7803 198.378 44.455C198.607 44.1297 198.746 43.7493 198.78 43.3527V41.1978C198.748 41.5988 198.611 41.9842 198.381 42.3147C198.152 42.6453 197.84 42.9092 197.476 43.0795V43.0795Z" fill="#252321"/>
<path d="M197.445 39.3462L196.141 38.6178C195.14 38.1087 194.033 37.8433 192.911 37.8433C191.788 37.8433 190.681 38.1087 189.68 38.6178L182.218 43.0795C181.829 43.2127 181.492 43.4642 181.253 43.7989C181.013 44.1336 180.885 44.5347 180.885 44.9461C180.885 45.3575 181.013 45.7586 181.253 46.0933C181.492 46.428 181.829 46.6796 182.218 46.8128L183.553 47.5715C184.556 48.0737 185.662 48.3351 186.783 48.3351C187.905 48.3351 189.011 48.0737 190.014 47.5715L197.476 43.0795C197.85 42.93 198.171 42.6709 198.396 42.336C198.621 42.0011 198.739 41.606 198.736 41.2025C198.733 40.799 198.608 40.4059 198.377 40.0747C198.147 39.7435 197.822 39.4896 197.445 39.3462V39.3462Z" fill="#393532"/>
<path d="M261.205 101.779L253.743 106.15C252.742 106.659 251.635 106.924 250.512 106.924C249.39 106.924 248.283 106.659 247.282 106.15L242.671 103.479C242.298 103.314 241.974 103.053 241.735 102.723C241.495 102.392 241.347 102.004 241.306 101.597V103.782C241.347 104.185 241.491 104.57 241.725 104.9C241.959 105.229 242.275 105.493 242.641 105.664L247.282 108.335C248.283 108.844 249.39 109.11 250.512 109.11C251.635 109.11 252.742 108.844 253.743 108.335L261.205 103.964C261.57 103.801 261.886 103.543 262.121 103.218C262.355 102.893 262.499 102.512 262.539 102.113V99.958C262.497 100.352 262.352 100.729 262.117 101.049C261.883 101.369 261.568 101.621 261.205 101.779V101.779Z" fill="#717F89"/>
<path d="M261.174 98.0455L256.564 95.3746C255.563 94.8655 254.456 94.6001 253.333 94.6001C252.211 94.6001 251.104 94.8655 250.103 95.3746L242.641 99.7453C242.252 99.8784 241.914 100.13 241.675 100.465C241.436 100.799 241.308 101.2 241.308 101.612C241.308 102.023 241.436 102.424 241.675 102.759C241.914 103.094 242.252 103.345 242.641 103.478L247.252 106.149C248.252 106.659 249.359 106.924 250.482 106.924C251.605 106.924 252.712 106.659 253.713 106.149L261.174 101.779C262.994 100.747 262.964 99.0774 261.174 98.0455Z" fill="#92A3AD"/>
<path d="M244.673 92.2486L237.211 96.6192C236.209 97.1213 235.102 97.3827 233.981 97.3827C232.86 97.3827 231.753 97.1213 230.751 96.6192L226.14 93.9179C225.764 93.7559 225.439 93.4957 225.199 93.1645C224.959 92.8334 224.813 92.4436 224.775 92.0361V94.191C224.81 94.5952 224.952 94.9828 225.186 95.3136C225.421 95.6445 225.74 95.9066 226.11 96.0728L230.751 98.7438C231.751 99.2529 232.858 99.5183 233.981 99.5183C235.104 99.5183 236.211 99.2529 237.211 98.7438L244.673 94.4035C245.043 94.2373 245.362 93.9752 245.597 93.6443C245.831 93.3135 245.973 92.9259 246.008 92.5217V90.3667C245.973 90.7709 245.831 91.1586 245.597 91.4894C245.362 91.8203 245.043 92.0824 244.673 92.2486V92.2486Z" fill="#717F89"/>
<path d="M244.643 88.6066L240.032 85.9356C239.034 85.4193 237.926 85.1499 236.802 85.1499C235.678 85.1499 234.57 85.4193 233.572 85.9356L226.14 90.1848C225.751 90.318 225.413 90.5696 225.174 90.9043C224.935 91.239 224.807 91.6401 224.807 92.0515C224.807 92.4629 224.935 92.864 225.174 93.1987C225.413 93.5334 225.751 93.7849 226.14 93.9181L230.751 96.5891C231.753 97.0912 232.86 97.3527 233.981 97.3527C235.102 97.3527 236.209 97.0912 237.211 96.5891L244.673 92.2184C245.012 92.0522 245.297 91.7936 245.495 91.4724C245.694 91.1512 245.797 90.7805 245.794 90.403C245.791 90.0255 245.681 89.6565 245.477 89.3387C245.274 89.0209 244.984 88.7671 244.643 88.6066Z" fill="#92A3AD"/>
<path d="M228.142 82.6879L220.68 87.0586C219.677 87.5607 218.571 87.8222 217.45 87.8222C216.328 87.8222 215.222 87.5607 214.219 87.0586L209.609 84.3876C209.235 84.223 208.912 83.9621 208.672 83.6314C208.432 83.3008 208.284 82.9123 208.244 82.5058V84.6609C208.284 85.0633 208.429 85.4482 208.663 85.778C208.897 86.1079 209.212 86.3714 209.578 86.5426L214.219 89.1832C215.22 89.6923 216.327 89.9577 217.45 89.9577C218.572 89.9577 219.679 89.6923 220.68 89.1832L228.142 84.8126C228.508 84.6489 228.824 84.3915 229.058 84.0664C229.292 83.7413 229.437 83.36 229.477 82.9612V80.8062C229.442 81.2104 229.3 81.598 229.065 81.9289C228.831 82.2597 228.512 82.5217 228.142 82.6879V82.6879Z" fill="#717F89"/>
<path d="M228.112 78.9244L223.501 76.2838C222.5 75.7747 221.393 75.5093 220.271 75.5093C219.148 75.5093 218.041 75.7747 217.04 76.2838L209.578 80.6544C209.189 80.7876 208.852 81.0392 208.613 81.3739C208.374 81.7086 208.245 82.1096 208.245 82.521C208.245 82.9324 208.374 83.3336 208.613 83.6683C208.852 84.003 209.189 84.2545 209.578 84.3876L214.189 87.0586C215.192 87.5607 216.298 87.8222 217.419 87.8222C218.541 87.8222 219.647 87.5607 220.65 87.0586L228.112 82.6879C228.497 82.5471 228.83 82.2911 229.066 81.9544C229.301 81.6178 229.427 81.217 229.427 80.8062C229.427 80.3954 229.301 79.9945 229.066 79.6579C228.83 79.3213 228.497 79.0652 228.112 78.9244V78.9244Z" fill="#92A3AD"/>
<path d="M211.611 73.1577L204.149 77.4979C203.148 78.007 202.041 78.2724 200.918 78.2724C199.796 78.2724 198.689 78.007 197.688 77.4979L193.077 74.827C192.702 74.665 192.377 74.4048 192.137 74.0736C191.896 73.7425 191.75 73.3526 191.712 72.9452V75.1001C191.753 75.5025 191.897 75.8875 192.131 76.2174C192.365 76.5472 192.681 76.8107 193.047 76.982L197.688 79.6528C198.689 80.162 199.796 80.4274 200.918 80.4274C202.041 80.4274 203.148 80.162 204.149 79.6528L211.611 75.2822C211.976 75.1185 212.292 74.8611 212.527 74.536C212.761 74.2109 212.905 73.8297 212.945 73.4308V71.2759C212.905 71.6783 212.76 72.0632 212.526 72.393C212.292 72.7229 211.977 72.9864 211.611 73.1577Z" fill="#717F89"/>
<path d="M211.58 69.3942L206.97 66.7233C205.969 66.2141 204.862 65.9487 203.739 65.9487C202.617 65.9487 201.51 66.2141 200.509 66.7233L193.047 71.0939C192.658 71.2271 192.32 71.4785 192.081 71.8132C191.842 72.1479 191.714 72.5491 191.714 72.9605C191.714 73.3719 191.842 73.773 192.081 74.1077C192.32 74.4424 192.658 74.6939 193.047 74.8271L197.658 77.498C198.658 78.0072 199.765 78.2726 200.888 78.2726C202.011 78.2726 203.118 78.0072 204.118 77.498L211.58 73.1578C211.966 73.0169 212.299 72.7609 212.534 72.4243C212.77 72.0877 212.896 71.6868 212.896 71.276C212.896 70.8652 212.77 70.4643 212.534 70.1277C212.299 69.7911 211.966 69.5351 211.58 69.3942V69.3942Z" fill="#92A3AD"/>
<path d="M195.079 63.597L187.617 67.9676C186.617 68.4767 185.51 68.7421 184.387 68.7421C183.264 68.7421 182.157 68.4767 181.157 67.9676L176.546 65.2967C176.17 65.1347 175.845 64.8744 175.605 64.5433C175.365 64.2121 175.219 63.8224 175.181 63.4149V65.5698C175.216 65.974 175.358 66.3616 175.592 66.6924C175.827 67.0233 176.146 67.2854 176.516 67.4516L181.157 70.1225C182.157 70.6317 183.264 70.8971 184.387 70.8971C185.51 70.8971 186.617 70.6317 187.617 70.1225L195.079 65.7823C195.449 65.6161 195.768 65.354 196.003 65.0231C196.237 64.6923 196.379 64.3046 196.414 63.9004V61.7759C196.369 62.1694 196.222 62.5443 195.988 62.8637C195.754 63.183 195.441 63.4358 195.079 63.597V63.597Z" fill="#252321"/>
<path d="M195.049 59.8336L190.438 57.1628C189.44 56.6465 188.332 56.377 187.208 56.377C186.084 56.377 184.976 56.6465 183.977 57.1628L176.516 61.503C176.127 61.6362 175.789 61.8878 175.55 62.2225C175.311 62.5572 175.182 62.9582 175.182 63.3696C175.182 63.781 175.311 64.1822 175.55 64.5169C175.789 64.8516 176.127 65.103 176.516 65.2362L181.126 67.9072C182.127 68.4163 183.234 68.6817 184.357 68.6817C185.479 68.6817 186.586 68.4163 187.587 67.9072L195.049 63.5365C195.415 63.3851 195.728 63.1285 195.949 62.7989C196.169 62.4693 196.287 62.0817 196.287 61.6851C196.287 61.2886 196.169 60.901 195.949 60.5714C195.728 60.2418 195.415 59.985 195.049 59.8336V59.8336Z" fill="#393532"/>
<path d="M178.548 54.0365L171.086 58.4071C170.085 58.9162 168.978 59.1816 167.856 59.1816C166.733 59.1816 165.626 58.9162 164.625 58.4071L163.321 57.6483C162.947 57.4876 162.625 57.2269 162.39 56.895C162.154 56.563 162.015 56.1726 161.986 55.7665V57.9215C162.027 58.3281 162.175 58.7164 162.415 59.047C162.654 59.3777 162.978 59.6387 163.351 59.8033L164.656 60.5317C165.656 61.0409 166.763 61.3063 167.886 61.3063C169.009 61.3063 170.116 61.0409 171.116 60.5317L178.578 56.1611C178.944 55.9974 179.26 55.74 179.494 55.4149C179.729 55.0898 179.873 54.7086 179.913 54.3097V52.1851C179.87 52.5872 179.721 52.9706 179.481 53.296C179.242 53.6214 178.919 53.877 178.548 54.0365V54.0365Z" fill="#252321"/>
<path d="M178.548 50.3029L177.213 49.5441C176.213 49.0349 175.106 48.7695 173.983 48.7695C172.86 48.7695 171.753 49.0349 170.752 49.5441L163.291 53.9147C162.902 54.0479 162.564 54.2994 162.325 54.6341C162.086 54.9688 161.957 55.3699 161.957 55.7813C161.957 56.1927 162.086 56.5938 162.325 56.9285C162.564 57.2632 162.902 57.5147 163.291 57.6479L164.595 58.4067C165.596 58.9158 166.703 59.1812 167.825 59.1812C168.948 59.1812 170.055 58.9158 171.056 58.4067L178.518 54.036C178.908 53.9061 179.248 53.6573 179.489 53.3246C179.731 52.9918 179.863 52.5917 179.866 52.1803C179.87 51.7689 179.744 51.3667 179.508 51.0301C179.272 50.6934 178.936 50.4392 178.548 50.3029V50.3029Z" fill="#393532"/>
<path d="M242.277 112.888L234.815 117.228C233.814 117.737 232.708 118.002 231.585 118.002C230.462 118.002 229.355 117.737 228.354 117.228L223.744 114.557C223.374 114.391 223.055 114.129 222.821 113.798C222.586 113.467 222.444 113.079 222.409 112.675V114.83C222.437 115.236 222.577 115.627 222.812 115.959C223.048 116.291 223.37 116.551 223.744 116.712L228.354 119.383C229.355 119.892 230.462 120.157 231.585 120.157C232.708 120.157 233.814 119.892 234.815 119.383L242.277 115.012C242.643 114.849 242.959 114.591 243.193 114.266C243.428 113.941 243.572 113.56 243.612 113.161V111.006C243.577 111.41 243.435 111.798 243.2 112.128C242.966 112.459 242.647 112.721 242.277 112.888V112.888Z" fill="#717F89"/>
<path d="M242.277 108.973L237.666 106.302C236.666 105.793 235.559 105.527 234.436 105.527C233.313 105.527 232.206 105.793 231.206 106.302L223.713 110.672C223.324 110.806 222.987 111.057 222.748 111.392C222.509 111.727 222.38 112.128 222.38 112.539C222.38 112.95 222.509 113.352 222.748 113.686C222.987 114.021 223.324 114.273 223.713 114.406L228.324 117.077C229.325 117.586 230.432 117.851 231.554 117.851C232.677 117.851 233.784 117.586 234.785 117.077L242.277 112.888C242.724 112.791 243.124 112.544 243.411 112.188C243.698 111.832 243.855 111.388 243.855 110.93C243.855 110.473 243.698 110.029 243.411 109.673C243.124 109.317 242.724 109.07 242.277 108.973V108.973Z" fill="#92A3AD"/>
<path d="M225.746 103.175L218.284 107.546C217.281 108.048 216.175 108.309 215.053 108.309C213.932 108.309 212.826 108.048 211.823 107.546L207.212 104.875C206.839 104.714 206.516 104.453 206.281 104.121C206.046 103.79 205.906 103.399 205.878 102.993V105.148C205.899 105.556 206.036 105.95 206.272 106.283C206.508 106.616 206.835 106.875 207.212 107.03L211.823 109.701C212.824 110.21 213.931 110.475 215.053 110.475C216.176 110.475 217.283 110.21 218.284 109.701L225.746 105.36C226.116 105.194 226.434 104.932 226.669 104.601C226.904 104.271 227.046 103.883 227.08 103.479V101.324C227.047 101.724 226.905 102.109 226.67 102.435C226.435 102.761 226.115 103.017 225.746 103.175V103.175Z" fill="#717F89"/>
<path d="M225.746 99.4118L221.135 96.7408C220.137 96.2245 219.029 95.9551 217.905 95.9551C216.781 95.9551 215.673 96.2245 214.674 96.7408L207.182 101.081C206.793 101.214 206.455 101.466 206.216 101.8C205.977 102.135 205.849 102.536 205.849 102.948C205.849 103.359 205.977 103.76 206.216 104.095C206.455 104.43 206.793 104.681 207.182 104.814L211.793 107.485C212.796 107.987 213.902 108.249 215.023 108.249C216.145 108.249 217.251 107.987 218.254 107.485L225.715 103.115C226.083 102.966 226.398 102.712 226.621 102.384C226.844 102.057 226.965 101.67 226.968 101.273C226.972 100.877 226.857 100.488 226.639 100.157C226.422 99.8255 226.111 99.5661 225.746 99.4118V99.4118Z" fill="#92A3AD"/>
<path d="M209.245 93.6144L201.874 97.9851C200.871 98.4872 199.765 98.7487 198.643 98.7487C197.522 98.7487 196.416 98.4872 195.413 97.9851L190.802 95.3141C190.433 95.1479 190.114 94.8858 189.879 94.555C189.644 94.2241 189.502 93.8365 189.468 93.4323V95.5873C189.502 95.9915 189.644 96.3791 189.879 96.71C190.114 97.0408 190.433 97.3029 190.802 97.4691L195.413 100.11C196.414 100.619 197.521 100.884 198.643 100.884C199.766 100.884 200.873 100.619 201.874 100.11L209.336 95.7391C209.701 95.5754 210.017 95.318 210.252 94.9929C210.486 94.6678 210.63 94.2865 210.67 93.8876V91.6416C210.647 92.0728 210.501 92.4882 210.248 92.838C209.995 93.1879 209.647 93.4575 209.245 93.6144Z" fill="#717F89"/>
<path d="M209.214 89.8815L204.604 87.2106C203.603 86.7014 202.496 86.436 201.373 86.436C200.251 86.436 199.144 86.7014 198.143 87.2106L190.651 91.6419C190.262 91.775 189.924 92.0266 189.685 92.3613C189.446 92.696 189.317 93.0971 189.317 93.5085C189.317 93.9199 189.446 94.321 189.685 94.6557C189.924 94.9904 190.262 95.242 190.651 95.3751L195.261 98.046C196.264 98.5481 197.37 98.8096 198.492 98.8096C199.613 98.8096 200.719 98.5481 201.722 98.046L209.214 93.6755C209.626 93.5577 209.989 93.3088 210.247 92.9665C210.505 92.6242 210.644 92.2072 210.644 91.7785C210.644 91.3498 210.505 90.9327 210.247 90.5904C209.989 90.2481 209.626 89.9993 209.214 89.8815V89.8815Z" fill="#92A3AD"/>
<path d="M192.774 84.0844L185.282 88.4247C184.281 88.9338 183.174 89.1992 182.051 89.1992C180.929 89.1992 179.822 88.9338 178.821 88.4247L174.21 85.7537C173.84 85.5875 173.522 85.3254 173.287 84.9946C173.052 84.6637 172.91 84.2761 172.876 83.8719V86.0269C172.91 86.4311 173.052 86.8187 173.287 87.1496C173.522 87.4804 173.84 87.7425 174.21 87.9087L178.821 90.5796C179.822 91.0887 180.929 91.3541 182.051 91.3541C183.174 91.3541 184.281 91.0887 185.282 90.5796L192.774 86.209C193.143 86.0506 193.463 85.7947 193.698 85.4685C193.933 85.1424 194.075 84.7583 194.109 84.3576V82.2026C194.074 82.6068 193.932 82.9944 193.697 83.3253C193.463 83.6561 193.144 83.9182 192.774 84.0844V84.0844Z" fill="#717F89"/>
<path d="M192.774 80.3204L188.164 77.6495C187.163 77.1404 186.056 76.875 184.933 76.875C183.81 76.875 182.703 77.1404 181.703 77.6495L174.21 82.0201C173.821 82.1533 173.484 82.4048 173.245 82.7395C173.006 83.0742 172.877 83.4754 172.877 83.8868C172.877 84.2982 173.006 84.6992 173.245 85.0339C173.484 85.3686 173.821 85.6202 174.21 85.7534L178.821 88.4243C179.822 88.9334 180.929 89.1988 182.051 89.1988C183.174 89.1988 184.281 88.9334 185.282 88.4243L192.774 84.0841C193.16 83.9432 193.493 83.6871 193.728 83.3505C193.963 83.0138 194.09 82.6131 194.09 82.2023C194.09 81.7915 193.963 81.3906 193.728 81.054C193.493 80.7174 193.16 80.4612 192.774 80.3204V80.3204Z" fill="#92A3AD"/>
<path d="M176.182 74.5233L168.69 78.8939C167.689 79.403 166.582 79.6684 165.459 79.6684C164.337 79.6684 163.23 79.403 162.229 78.8939L157.618 76.223C157.253 76.0594 156.937 75.8019 156.702 75.4768C156.468 75.1517 156.324 74.7704 156.284 74.3716V76.4962C156.312 76.9023 156.452 77.2927 156.687 77.6247C156.922 77.9566 157.245 78.2173 157.618 78.378L162.229 81.0489C163.232 81.5511 164.338 81.8124 165.459 81.8124C166.581 81.8124 167.687 81.5511 168.69 81.0489L176.152 76.6783C176.525 76.5176 176.848 76.2569 177.083 75.925C177.319 75.593 177.458 75.2026 177.486 74.7965V72.6719C177.452 73.0684 177.314 73.4489 177.085 73.7742C176.855 74.0995 176.544 74.358 176.182 74.5233V74.5233Z" fill="#252321"/>
<path d="M176.152 70.7599L171.541 68.089C170.542 67.5726 169.435 67.3032 168.311 67.3032C167.187 67.3032 166.079 67.5726 165.08 68.089L157.588 72.4293C157.199 72.5625 156.861 72.8139 156.622 73.1486C156.383 73.4833 156.255 73.8845 156.255 74.2959C156.255 74.7073 156.383 75.1084 156.622 75.4431C156.861 75.7778 157.199 76.0293 157.588 76.1625L162.199 78.8334C163.199 79.3426 164.306 79.608 165.429 79.608C166.552 79.608 167.659 79.3426 168.659 78.8334L176.152 74.4628C176.518 74.3114 176.831 74.0546 177.051 73.725C177.272 73.3955 177.389 73.0079 177.389 72.6114C177.389 72.2149 177.272 71.8273 177.051 71.4977C176.831 71.1681 176.518 70.9113 176.152 70.7599V70.7599Z" fill="#393532"/>
<path d="M159.651 64.9627L152.159 69.3334C151.158 69.8425 150.051 70.1079 148.928 70.1079C147.805 70.1079 146.699 69.8425 145.698 69.3334L144.393 68.5746C144.027 68.4033 143.712 68.1399 143.478 67.81C143.244 67.4802 143.099 67.0952 143.059 66.6928V68.8477C143.093 69.2519 143.235 69.6396 143.47 69.9704C143.705 70.3013 144.023 70.5633 144.393 70.7295L145.698 71.4883C146.701 71.9904 147.807 72.2519 148.928 72.2519C150.05 72.2519 151.156 71.9904 152.159 71.4883L159.62 67.1178C159.99 66.9594 160.309 66.7034 160.544 66.3772C160.779 66.0511 160.921 65.667 160.955 65.2663V63.1113C160.921 63.5079 160.782 63.8883 160.553 64.2136C160.324 64.5389 160.013 64.7974 159.651 64.9627V64.9627Z" fill="#252321"/>
<path d="M159.62 61.2902L158.316 60.5314C157.315 60.0222 156.208 59.7568 155.086 59.7568C153.963 59.7568 152.856 60.0222 151.855 60.5314L144.242 64.8413C143.853 64.9745 143.515 65.226 143.276 65.5607C143.037 65.8954 142.908 66.2965 142.908 66.7079C142.908 67.1193 143.037 67.5204 143.276 67.8551C143.515 68.1898 143.853 68.4413 144.242 68.5745L145.546 69.3333C146.547 69.8424 147.654 70.1078 148.776 70.1078C149.899 70.1078 151.006 69.8424 152.007 69.3333L159.499 64.9627C159.873 64.8304 160.198 64.5884 160.433 64.2682C160.667 63.948 160.799 63.5645 160.812 63.1679C160.825 62.7712 160.719 62.3799 160.506 62.0449C160.293 61.7099 159.985 61.4469 159.62 61.2902Z" fill="#393532"/>
<path d="M223.38 123.663L215.918 128.064C214.917 128.573 213.81 128.838 212.687 128.838C211.565 128.838 210.458 128.573 209.457 128.064L204.907 125.332C204.537 125.166 204.218 124.904 203.984 124.573C203.749 124.242 203.607 123.854 203.572 123.45V125.605C203.613 126.008 203.757 126.392 203.991 126.722C204.225 127.052 204.541 127.316 204.907 127.487L209.518 130.158C210.518 130.667 211.625 130.932 212.748 130.932C213.871 130.932 214.978 130.667 215.978 130.158L223.471 125.787C223.833 125.622 224.144 125.363 224.373 125.038C224.602 124.713 224.741 124.332 224.775 123.936V121.781C224.729 122.19 224.575 122.579 224.33 122.909C224.085 123.24 223.757 123.5 223.38 123.663V123.663Z" fill="#717F89"/>
<path d="M223.349 119.899L218.739 117.228C217.738 116.719 216.631 116.454 215.508 116.454C214.386 116.454 213.279 116.719 212.278 117.228L204.907 121.599C204.518 121.732 204.18 121.983 203.941 122.318C203.702 122.653 203.574 123.054 203.574 123.465C203.574 123.877 203.702 124.278 203.941 124.613C204.18 124.947 204.518 125.199 204.907 125.332L209.548 128.003C210.549 128.512 211.656 128.777 212.778 128.777C213.901 128.777 215.008 128.512 216.009 128.003L223.471 123.663C223.852 123.51 224.178 123.243 224.403 122.899C224.627 122.555 224.741 122.149 224.728 121.738C224.714 121.327 224.575 120.93 224.328 120.601C224.082 120.272 223.74 120.027 223.349 119.899Z" fill="#92A3AD"/>
<path d="M206.848 114.102L199.386 118.473C198.386 118.982 197.279 119.247 196.156 119.247C195.033 119.247 193.926 118.982 192.926 118.473L188.285 115.923C187.915 115.757 187.596 115.495 187.361 115.164C187.127 114.833 186.985 114.446 186.95 114.042V115.923C186.985 116.328 187.127 116.715 187.361 117.046C187.596 117.377 187.915 117.639 188.285 117.805L192.895 120.476C193.896 120.985 195.003 121.251 196.126 121.251C197.248 121.251 198.355 120.985 199.356 120.476L206.848 116.136C207.214 115.968 207.529 115.705 207.758 115.374C207.988 115.043 208.124 114.656 208.153 114.254V112.129C208.137 112.546 208.007 112.951 207.777 113.299C207.547 113.647 207.226 113.925 206.848 114.102Z" fill="#717F89"/>
<path d="M206.818 110.339L202.208 107.668C201.209 107.151 200.101 106.882 198.977 106.882C197.853 106.882 196.745 107.151 195.747 107.668L188.285 112.008C187.896 112.141 187.558 112.393 187.319 112.727C187.08 113.062 186.951 113.463 186.951 113.875C186.951 114.286 187.08 114.687 187.319 115.022C187.558 115.356 187.896 115.608 188.285 115.741L192.926 118.412C193.927 118.921 195.033 119.187 196.156 119.187C197.279 119.187 198.386 118.921 199.387 118.412L206.848 114.041C207.213 113.887 207.525 113.628 207.742 113.296C207.96 112.965 208.074 112.576 208.071 112.18C208.068 111.783 207.947 111.397 207.724 111.069C207.501 110.741 207.186 110.487 206.818 110.339V110.339Z" fill="#92A3AD"/>
<path d="M190.317 104.541L182.855 108.912C181.854 109.421 180.748 109.686 179.625 109.686C178.502 109.686 177.395 109.421 176.394 108.912L171.753 106.241C171.387 106.069 171.072 105.806 170.838 105.476C170.604 105.146 170.46 104.761 170.419 104.359V106.514C170.46 106.916 170.604 107.301 170.838 107.631C171.072 107.961 171.387 108.224 171.753 108.396L176.364 111.067C177.367 111.569 178.473 111.83 179.594 111.83C180.716 111.83 181.822 111.569 182.825 111.067L190.317 106.817C190.679 106.652 190.99 106.394 191.22 106.068C191.449 105.743 191.587 105.363 191.621 104.966V102.811C191.565 103.185 191.416 103.539 191.188 103.841C190.96 104.143 190.661 104.384 190.317 104.541V104.541Z" fill="#717F89"/>
<path d="M190.287 100.747L185.676 98.0763C184.675 97.5672 183.568 97.3018 182.446 97.3018C181.323 97.3018 180.216 97.5672 179.215 98.0763L171.753 102.447C171.364 102.58 171.027 102.832 170.788 103.166C170.549 103.501 170.42 103.902 170.42 104.314C170.42 104.725 170.549 105.126 170.788 105.461C171.027 105.795 171.364 106.047 171.753 106.18L176.394 108.851C177.395 109.36 178.502 109.626 179.625 109.626C180.747 109.626 181.854 109.36 182.855 108.851L190.317 104.481C190.705 104.344 191.041 104.09 191.277 103.753C191.513 103.417 191.639 103.014 191.635 102.603C191.632 102.192 191.5 101.792 191.258 101.459C191.017 101.126 190.677 100.877 190.287 100.747V100.747Z" fill="#92A3AD"/>
<path d="M173.786 95.0107L166.324 99.351C165.323 99.8602 164.216 100.125 163.094 100.125C161.971 100.125 160.864 99.8602 159.863 99.351L155.222 96.6801C154.852 96.5139 154.534 96.2518 154.299 95.9209C154.064 95.5901 153.922 95.2025 153.888 94.7983V96.9532C153.928 97.3556 154.073 97.7406 154.307 98.0705C154.541 98.4003 154.856 98.6637 155.222 98.835L159.833 101.506C160.834 102.015 161.94 102.281 163.063 102.281C164.186 102.281 165.293 102.015 166.294 101.506L173.786 97.1657C174.15 96.9953 174.463 96.7315 174.692 96.4009C174.921 96.0704 175.058 95.6849 175.09 95.2839V93.1289C175.052 93.5282 174.913 93.9111 174.684 94.2407C174.456 94.5703 174.146 94.8354 173.786 95.0107V95.0107Z" fill="#717F89"/>
<path d="M173.755 91.2471L169.145 88.6066C168.144 88.0974 167.037 87.832 165.914 87.832C164.792 87.832 163.685 88.0974 162.684 88.6066L155.222 92.9772C154.833 93.1104 154.495 93.3619 154.256 93.6966C154.017 94.0313 153.889 94.4324 153.889 94.8438C153.889 95.2552 154.017 95.6564 154.256 95.991C154.495 96.3257 154.833 96.5773 155.222 96.7105L159.863 99.3813C160.864 99.8905 161.971 100.156 163.093 100.156C164.216 100.156 165.323 99.8905 166.324 99.3813L173.786 95.0411C174.181 94.9034 174.523 94.6454 174.764 94.3032C175.005 93.961 175.133 93.5519 175.129 93.1333C175.126 92.7147 174.992 92.3075 174.745 91.9692C174.499 91.631 174.153 91.3784 173.755 91.2471V91.2471Z" fill="#92A3AD"/>
<path d="M157.254 85.5716L149.793 89.9422C148.792 90.4514 147.685 90.7168 146.562 90.7168C145.439 90.7168 144.333 90.4514 143.332 89.9422L138.691 87.3017C138.326 87.128 138.012 86.8638 137.779 86.5345C137.545 86.2051 137.4 85.8214 137.356 85.4199V87.5444C137.391 87.9487 137.533 88.3363 137.768 88.6672C138.002 88.998 138.321 89.26 138.691 89.4262L143.301 92.0972C144.304 92.5993 145.41 92.8608 146.532 92.8608C147.653 92.8608 148.759 92.5993 149.762 92.0972L157.254 87.7265C157.621 87.5553 157.936 87.2919 158.17 86.962C158.404 86.6322 158.548 86.2472 158.589 85.8448V83.7202C158.549 84.1191 158.405 84.5003 158.17 84.8254C157.936 85.1505 157.62 85.4079 157.254 85.5716V85.5716Z" fill="#252321"/>
<path d="M157.224 81.686L152.614 79.0151C151.611 78.5129 150.505 78.2515 149.383 78.2515C148.262 78.2515 147.156 78.5129 146.153 79.0151L138.691 83.3553C138.305 83.4962 137.972 83.7523 137.737 84.0889C137.501 84.4255 137.375 84.8264 137.375 85.2372C137.375 85.648 137.501 86.0488 137.737 86.3854C137.972 86.722 138.305 86.9781 138.691 87.119L143.332 89.7596C144.333 90.2687 145.439 90.5341 146.562 90.5341C147.685 90.5341 148.792 90.2687 149.793 89.7596L157.254 85.571C157.686 85.4587 158.068 85.2054 158.339 84.8514C158.61 84.4974 158.756 84.0629 158.752 83.6167C158.749 83.1706 158.597 82.7383 158.32 82.3886C158.043 82.0388 157.657 81.7916 157.224 81.686V81.686Z" fill="#393532"/>
<path d="M140.723 75.889L133.261 80.2596C132.26 80.7688 131.154 81.0342 130.031 81.0342C128.908 81.0342 127.801 80.7688 126.8 80.2596L125.496 79.5008C125.122 79.3362 124.799 79.0753 124.559 78.7446C124.319 78.414 124.172 78.0256 124.131 77.6191V79.774C124.172 80.1764 124.316 80.5614 124.55 80.8912C124.784 81.2211 125.1 81.4845 125.466 81.6558L126.77 82.4146C127.778 82.9171 128.889 83.1786 130.016 83.1786C131.142 83.1786 132.253 82.9171 133.261 82.4146L140.723 78.0439C141.085 77.8753 141.398 77.6165 141.632 77.2924C141.865 76.9682 142.012 76.5896 142.058 76.1925V74.0376C142.018 74.4365 141.873 74.8177 141.639 75.1428C141.405 75.4679 141.089 75.7253 140.723 75.889V75.889Z" fill="#252321"/>
<path d="M140.693 72.1558L139.388 71.397C138.388 70.8879 137.281 70.6226 136.158 70.6226C135.035 70.6226 133.928 70.8879 132.928 71.397L125.466 75.7676C123.676 76.7996 123.706 78.4689 125.466 79.5009L126.77 80.2597C127.771 80.7688 128.878 81.0342 130 81.0342C131.123 81.0342 132.23 80.7688 133.231 80.2597L140.693 75.8891C142.513 74.8571 142.482 73.1877 140.693 72.1558Z" fill="#393532"/>
<path d="M204.452 133.823L196.99 138.163C195.989 138.673 194.883 138.938 193.76 138.938C192.637 138.938 191.53 138.673 190.529 138.163L185.919 135.493C185.541 135.338 184.821 134.71 184.584 134.377L184.584 136.532C184.625 136.938 184.773 137.327 185.012 137.658C185.252 137.988 185.576 138.249 185.949 138.414L190.56 141.085C191.561 141.594 192.667 141.859 193.79 141.859C194.913 141.859 196.02 141.594 197.021 141.085L204.482 136.714C204.848 136.55 205.164 136.293 205.399 135.968C205.633 135.643 205.837 135.221 205.817 134.096C205.797 132.972 205.413 132.206 205.413 132.206C205.37 132.611 205.625 132.734 205.385 133.064C205.146 133.394 204.824 133.656 204.452 133.823Z" fill="#F96E27"/>
<path d="M204.452 130.826L199.811 128.064C198.81 127.554 197.704 127.289 196.581 127.289C195.458 127.289 194.351 127.554 193.35 128.064L185.889 132.434C185.5 132.567 185.162 132.819 184.923 133.154C184.684 133.488 184.555 133.889 184.555 134.301C184.555 134.712 184.684 135.113 184.923 135.448C185.162 135.783 185.5 136.034 185.889 136.168L190.499 138.838C191.5 139.347 192.607 139.613 193.73 139.613C194.852 139.613 195.959 139.347 196.96 138.838L204.422 134.498C204.78 134.345 205.086 134.091 205.303 133.767C205.519 133.442 205.636 133.062 205.639 132.672C205.642 132.282 205.532 131.899 205.321 131.572C205.11 131.244 204.808 130.984 204.452 130.826Z" fill="url(#paint0_radial_503_319)"/>
<path d="M187.921 125.029L180.459 129.399C179.458 129.908 178.351 130.174 177.229 130.174C176.106 130.174 174.999 129.908 173.998 129.399L169.388 126.728C169.014 126.576 168.691 126.321 168.455 125.994C168.219 125.667 168.08 125.28 168.053 124.877V127.001C168.09 127.409 168.237 127.799 168.477 128.13C168.717 128.461 169.042 128.721 169.418 128.883L174.028 131.554C175.031 132.056 176.137 132.318 177.259 132.318C178.38 132.318 179.486 132.056 180.489 131.554L187.951 127.184C188.321 127.017 188.64 126.755 188.874 126.424C189.109 126.094 189.251 125.706 189.286 125.302V123.177C189.243 123.579 189.094 123.963 188.854 124.288C188.614 124.614 188.292 124.869 187.921 125.029V125.029Z" fill="#252321"/>
<path d="M187.921 121.265L183.28 118.594C182.281 118.078 181.174 117.808 180.049 117.808C178.925 117.808 177.818 118.078 176.819 118.594L169.357 122.934C168.968 123.067 168.63 123.319 168.391 123.654C168.152 123.988 168.024 124.389 168.024 124.801C168.024 125.212 168.152 125.613 168.391 125.948C168.63 126.283 168.968 126.534 169.357 126.667L173.968 129.338C174.969 129.847 176.075 130.113 177.198 130.113C178.321 130.113 179.428 129.847 180.429 129.338L187.921 125.028C188.306 124.888 188.64 124.631 188.875 124.295C189.11 123.958 189.236 123.557 189.236 123.147C189.236 122.736 189.11 122.335 188.875 121.998C188.64 121.662 188.306 121.406 187.921 121.265V121.265Z" fill="#393532"/>
<path d="M171.541 115.468L164.079 119.838C163.078 120.347 161.972 120.613 160.849 120.613C159.726 120.613 158.619 120.347 157.618 119.838L153.008 117.167C152.634 117.007 152.312 116.746 152.076 116.414C151.841 116.082 151.701 115.692 151.673 115.286V117.441C151.714 117.847 151.862 118.235 152.101 118.566C152.341 118.897 152.665 119.158 153.038 119.322L157.649 121.993C158.652 122.495 159.758 122.757 160.879 122.757C162.001 122.757 163.107 122.495 164.11 121.993L171.541 117.623C171.907 117.459 172.223 117.202 172.457 116.876C172.692 116.551 172.836 116.17 172.876 115.771V113.616C172.836 114.015 172.692 114.396 172.457 114.722C172.223 115.047 171.907 115.304 171.541 115.468V115.468Z" fill="#252321"/>
<path d="M171.541 111.734L166.9 109.064C165.899 108.554 164.793 108.289 163.67 108.289C162.547 108.289 161.44 108.554 160.439 109.064L152.978 113.434C152.589 113.567 152.251 113.819 152.012 114.154C151.773 114.488 151.644 114.889 151.644 115.301C151.644 115.712 151.773 116.113 152.012 116.448C152.251 116.783 152.589 117.034 152.978 117.167L157.588 119.838C158.589 120.348 159.696 120.613 160.819 120.613C161.941 120.613 163.048 120.348 164.049 119.838L171.541 115.468C171.93 115.335 172.268 115.083 172.507 114.748C172.746 114.414 172.875 114.012 172.875 113.601C172.875 113.19 172.746 112.789 172.507 112.454C172.268 112.119 171.93 111.868 171.541 111.734V111.734Z" fill="#393532"/>
<path d="M154.858 105.937L147.275 110.278C146.274 110.787 145.167 111.052 144.045 111.052C142.922 111.052 141.815 110.787 140.814 110.278L136.204 107.607C135.83 107.446 135.508 107.185 135.272 106.854C135.037 106.522 134.897 106.131 134.869 105.725V107.88C134.906 108.287 135.053 108.677 135.293 109.008C135.533 109.34 135.858 109.6 136.234 109.762L140.844 112.433C141.845 112.942 142.952 113.207 144.075 113.207C145.198 113.207 146.304 112.942 147.305 112.433L154.767 108.092C155.133 107.921 155.449 107.658 155.683 107.328C155.917 106.998 156.061 106.613 156.102 106.211V104.056C156.076 104.45 155.947 104.832 155.729 105.162C155.511 105.492 155.211 105.759 154.858 105.937V105.937Z" fill="#252321"/>
<path d="M154.858 102.174L150.308 99.5031C149.307 98.9939 148.201 98.7285 147.078 98.7285C145.955 98.7285 144.848 98.9939 143.847 99.5031L136.295 103.783C135.906 103.916 135.568 104.167 135.329 104.502C135.09 104.837 134.961 105.238 134.961 105.649C134.961 106.061 135.09 106.462 135.329 106.796C135.568 107.131 135.906 107.383 136.295 107.516L140.905 110.187C141.906 110.696 143.013 110.961 144.136 110.961C145.258 110.961 146.365 110.696 147.366 110.187L154.828 105.847C155.186 105.694 155.492 105.439 155.709 105.115C155.925 104.791 156.042 104.41 156.045 104.02C156.048 103.63 155.938 103.248 155.727 102.92C155.516 102.592 155.214 102.333 154.858 102.174V102.174Z" fill="#393532"/>
<path d="M138.327 96.3769L130.865 100.748C129.864 101.257 128.757 101.522 127.635 101.522C126.512 101.522 125.405 101.257 124.404 100.748L119.793 98.107C119.425 97.9382 119.108 97.6754 118.874 97.3451C118.64 97.0147 118.497 96.6285 118.459 96.2252V98.3498C118.496 98.7572 118.643 99.1471 118.883 99.4782C119.123 99.8094 119.448 100.07 119.824 100.232L124.434 102.903C125.437 103.405 126.543 103.666 127.665 103.666C128.786 103.666 129.892 103.405 130.895 102.903L138.357 98.5319C138.723 98.3682 139.039 98.1108 139.273 97.7857C139.508 97.4606 139.652 97.0793 139.692 96.6805V94.6772C139.63 95.0543 139.472 95.4089 139.233 95.7067C138.994 96.0045 138.681 96.2354 138.327 96.3769Z" fill="#252321"/>
<path d="M138.327 92.6128L133.686 89.9418C132.683 89.4397 131.577 89.1782 130.456 89.1782C129.334 89.1782 128.228 89.4397 127.225 89.9418L119.763 94.2821C119.378 94.4229 119.045 94.679 118.809 95.0156C118.574 95.3522 118.448 95.7531 118.448 96.1639C118.448 96.5747 118.574 96.9755 118.809 97.3121C119.045 97.6488 119.378 97.9048 119.763 98.0456L124.374 100.686C125.375 101.195 126.482 101.461 127.604 101.461C128.727 101.461 129.834 101.195 130.835 100.686L138.297 96.3157C138.664 96.1673 138.979 95.9131 139.202 95.5853C139.425 95.2575 139.546 94.8709 139.549 94.4744C139.553 94.0778 139.438 93.6893 139.221 93.3579C139.003 93.0265 138.692 92.7672 138.327 92.6128V92.6128Z" fill="#393532"/>
<path d="M121.795 86.8158L114.334 91.1865C113.333 91.6956 112.226 91.961 111.103 91.961C109.98 91.961 108.874 91.6956 107.873 91.1865L106.568 90.4277C106.199 90.2615 105.88 89.9994 105.645 89.6685C105.41 89.3377 105.268 88.9501 105.234 88.5459V90.7008C105.274 91.1074 105.422 91.4958 105.662 91.8264C105.902 92.1571 106.225 92.418 106.599 92.5826L107.903 93.3414C108.904 93.8506 110.011 94.116 111.133 94.116C112.256 94.116 113.363 93.8506 114.364 93.3414L121.826 88.9708C122.191 88.8071 122.507 88.5497 122.742 88.2246C122.976 87.8995 123.121 87.5182 123.16 87.1194V84.9644C123.124 85.3684 122.978 85.7548 122.737 86.0813C122.496 86.4078 122.171 86.6619 121.795 86.8158V86.8158Z" fill="#252321"/>
<path d="M121.796 83.0829L120.491 82.3241C119.485 81.8147 118.373 81.5493 117.246 81.5493C116.118 81.5493 115.006 81.8147 114 82.3241L106.538 86.6948C106.149 86.8279 105.812 87.0795 105.572 87.4142C105.333 87.7489 105.205 88.15 105.205 88.5614C105.205 88.9728 105.333 89.3739 105.572 89.7086C105.812 90.0433 106.149 90.2949 106.538 90.428L107.843 91.1868C108.843 91.696 109.95 91.9614 111.073 91.9614C112.196 91.9614 113.303 91.696 114.303 91.1868L121.765 86.8162C122.155 86.6862 122.495 86.4374 122.737 86.1046C122.979 85.7719 123.111 85.3719 123.114 84.9604C123.117 84.549 122.992 84.1468 122.756 83.8101C122.519 83.4735 122.184 83.2192 121.796 83.0829V83.0829Z" fill="#393532"/>
<path d="M159.711 164.485L153.979 161.177L163.078 155.926L167.992 158.719C165.93 159.386 164.565 158.719 163.867 159.144C163.169 159.568 167.507 162.422 164.686 162.937C163.037 162.968 161.401 162.637 159.893 161.966C159.469 161.815 158.953 161.693 158.832 161.966C158.71 162.239 160.136 163.15 159.711 164.485Z" fill="#FFF0E5"/>
<path d="M179.61 169.159L183.674 172.892C183.674 172.892 183.674 173.166 183.371 173.074L176.88 170.707L179.61 169.159Z" fill="url(#paint1_linear_503_319)"/>
<path d="M155.677 156.412L163.897 156.807C165.56 157.27 167.115 158.054 168.478 159.113L181.157 170.556C179.67 169.706 178.821 170.89 179.367 171.618L159.651 164.486C158.862 163.939 157.679 163.423 157.436 162.725L154.767 156.989L155.677 156.412Z" fill="url(#paint2_linear_503_319)"/>
<path d="M146.983 157.117L14.357 80.2594V77.1636L150.721 156.233L161.805 162.733L161.017 162.459C160.562 162.459 159.925 162.277 159.773 162.459C159.622 162.642 161.169 163.856 160.926 165.13L146.983 157.117Z" fill="url(#paint3_linear_503_319)"/>
<path d="M14.357 77.164V72.8237L153.007 153.192L159.347 156.867L164.593 159.869C165.082 160.799 167.916 162.945 165.412 163.332C163.821 163.254 162.258 162.884 160.802 162.24L150.553 156.136L14.357 77.164Z" fill="url(#paint4_linear_503_319)"/>
<path d="M14.357 72.8235V69.6973L154.846 151.13L158.304 153.134L167.707 158.567C167.192 159.72 165.341 159.052 164.674 159.538C164.647 159.584 164.633 159.636 164.633 159.69C164.633 159.743 165.487 161.048 165.513 161.094L152.156 152.698L14.357 72.8235Z" fill="url(#paint5_linear_503_319)"/>
<path d="M14.903 77.4974V80.5326L0.919617 72.4591V69.3936L14.903 77.4974Z" fill="#683426"/>
<path d="M0.919617 69.3937L2.80024 66.1157L16.7533 74.1892L14.8727 77.4369L0.919617 69.3937Z" fill="#7A3E2B"/>
<path d="M2.80023 66.1158L5.49984 64.5679L19.3922 72.611L16.7229 74.159L2.80023 66.1158Z" fill="#8C4B34"/>
<defs>
<radialGradient id="paint0_radial_503_319" cx="0" cy="0" r="1" gradientUnits="userSpaceOnUse" gradientTransform="translate(195.097 133.451) rotate(90) scale(6.16192 10.5419)">
<stop stop-color="#FC8243"/>
<stop offset="1" stop-color="#FC8243" stop-opacity="0.88"/>
</radialGradient>
<linearGradient id="paint1_linear_503_319" x1="179.114" y1="178.233" x2="177.972" y2="179.374" gradientUnits="userSpaceOnUse">
<stop offset="0.25" stop-color="#3B3B3B"/>
<stop offset="0.43" stop-color="#636363"/>
<stop offset="0.58" stop-color="#545454"/>
<stop offset="0.73" stop-color="#3B3B3B"/>
</linearGradient>
<linearGradient id="paint2_linear_503_319" x1="170.116" y1="160.631" x2="166.715" y2="165.576" gradientUnits="userSpaceOnUse">
<stop stop-color="#F5DFC1"/>
<stop offset="0.26" stop-color="#F4DEBF"/>
<stop offset="0.35" stop-color="#F1D9B8"/>
<stop offset="0.42" stop-color="#ECD1AD"/>
<stop offset="0.43" stop-color="#EACFA9"/>
<stop offset="0.52" stop-color="#E6C69E"/>
<stop offset="0.83" stop-color="#DBAD80"/>
<stop offset="1" stop-color="#D7A474"/>
</linearGradient>
<linearGradient id="paint3_linear_503_319" x1="153.14" y1="159.769" x2="17.4766" y2="79.7846" gradientUnits="userSpaceOnUse">
<stop stop-color="#EE5F16"/>
<stop offset="1" stop-color="#EE5F16" stop-opacity="0.52"/>
</linearGradient>
<linearGradient id="paint4_linear_503_319" x1="159.327" y1="160.653" x2="20.128" y2="77.1336" gradientUnits="userSpaceOnUse">
<stop stop-color="#F96E27"/>
<stop offset="1" stop-color="#F96E27" stop-opacity="0.47"/>
</linearGradient>
<linearGradient id="paint5_linear_503_319" x1="163.304" y1="159.769" x2="21.4537" y2="74.0399" gradientUnits="userSpaceOnUse">
<stop stop-color="#FF8D53"/>
<stop offset="1" stop-color="#FF8D53" stop-opacity="0.42"/>
</linearGradient>
</defs>
</svg>
