<svg viewBox="0 0 666 422" fill="none" xmlns="http://www.w3.org/2000/svg">
<path d="M304.109 119.517L276.307 103.467L241.168 123.752L288.468 151.059M337.143 152.349L393.025 120.089L422.632 137.181M337.143 152.349L313.924 165.754L288.468 151.059M337.143 152.349L559.742 280.855L504.479 312.759L316.904 204.471L339.659 191.335L422.632 242.836M288.468 151.059L146.829 232.827L201.892 264.615M288.468 151.059L0.756729 317.518M228.103 338.906L250.703 325.859L415.17 420.805L468.42 390.064L410.108 356.4L385.495 370.609L201.892 264.615M201.892 264.615L226.505 250.406L295.469 290.219L341.289 263.767L150.464 153.604M422.632 137.181L511.636 188.563L606.062 134.051L664.375 167.714L609.112 199.617M422.632 137.181L472.477 108.406L332.744 27.7377L378.564 1.28578L566.139 109.573L621.401 77.6692" stroke="url(#paint0_radial_506_411)"/>
<defs>
<radialGradient id="paint0_radial_506_411" cx="0" cy="0" r="1" gradientUnits="userSpaceOnUse" gradientTransform="translate(380.5 203) rotate(53.2288) scale(232.2 1094.27)">
<stop stop-color="#FFCC64"/>
<stop offset="0.401042" stop-color="#FD5F70"/>
<stop offset="0.692708" stop-color="#FE8D99" stop-opacity="0.713043"/>
<stop offset="1" stop-color="white" stop-opacity="0"/>
</radialGradient>
</defs>
</svg>
