<svg width="464" height="270" viewBox="0 0 464 270" fill="none" xmlns="http://www.w3.org/2000/svg">
<path d="M71.7896 108.955L166.612 163.696L212.385 137.271M212.385 137.271L147.82 99.9978M212.385 137.271L240.228 121.197M138.769 39.0363L126.528 46.1029L162.56 66.9044L205.92 41.8729L147.82 8.33167L68.4277 54.1647L147.82 99.9978M147.82 99.9978L1.44871 184.498L107.736 245.857L162.474 214.257L210.747 242.125M240.228 121.197L291.777 91.4383L240.315 61.7289L289.364 33.4129L308.931 44.7095L385.048 0.767469L436.597 30.5266L290.226 115.027M240.228 121.197L288.502 149.065M288.502 149.065L386.686 205.747L462.716 161.855L425.908 140.606L397.202 157.177L373.066 143.243L422.115 114.927M288.502 149.065L230.401 182.607L281.95 212.366L380.134 269.048" stroke="url(#paint0_radial_499_192)" stroke-width="0.862093"/>
<defs>
<radialGradient id="paint0_radial_499_192" cx="0" cy="0" r="1" gradientUnits="userSpaceOnUse" gradientTransform="translate(196.999 124.015) rotate(-32.7529) scale(187.464 859.266)">
<stop stop-color="#FFCC64"/>
<stop offset="0.401042" stop-color="#FD5F70"/>
<stop offset="0.692708" stop-color="#FE8D99" stop-opacity="0.713043"/>
<stop offset="1" stop-color="white" stop-opacity="0"/>
</radialGradient>
</defs>
</svg>
