<svg width="231" height="299" viewBox="0 0 231 299" fill="none" xmlns="http://www.w3.org/2000/svg">
<path d="M163.147 183.644L69.9285 238.554V198.968L163.147 145.335V183.644Z" fill="#948F9A"/>
<path d="M69.9284 238.554V199.607L0.971985 160.021V199.607L69.9284 238.554Z" fill="#7D7982"/>
<path d="M14.3799 185.56V207.268L52.689 228.977V207.268L14.3799 185.56Z" fill="#2D2C32"/>
<path d="M14.3799 185.56V207.268L33.5345 196.414L14.3799 185.56Z" fill="#242125"/>
<path d="M163.147 145.974L69.9283 199.607L0.971985 160.02L94.1908 105.111L163.147 145.974Z" fill="#C6C1CC"/>
<path d="M133.777 151.082L68.6513 188.114V129.373L133.777 91.0642V151.082Z" fill="#2D2C31"/>
<path d="M20.765 161.298L68.6513 188.114V130.012L20.765 101.918V161.298Z" fill="#242125"/>
<path d="M134.415 91.7026L68.6511 130.012L20.1263 101.918L84.6133 64.2477L134.415 91.7026Z" fill="#363239"/>
<path d="M84.6135 168.959V161.297L90.9984 157.466V165.128L84.6135 168.959Z" fill="url(#paint0_linear_497_8299)"/>
<path d="M92.2754 156.828L90.9984 157.467V165.128H92.2754V156.828Z" fill="#646464"/>
<path d="M85.8905 168.959L92.2753 165.128H90.9984L84.6135 168.959H85.8905Z" fill="#A5A5A5"/>
<path d="M84.6135 153.636V145.974L90.9984 142.143V149.805L84.6135 153.636Z" fill="url(#paint1_linear_497_8299)"/>
<path d="M92.2754 141.505L90.9984 142.143V149.805H92.2754V141.505Z" fill="#646464"/>
<path d="M85.8905 153.636L92.2753 149.805H90.9984L84.6135 153.636H85.8905Z" fill="#A5A5A5"/>
<path d="M84.6135 138.312V130.65L90.9984 126.819V134.481L84.6135 138.312Z" fill="url(#paint2_linear_497_8299)"/>
<path d="M92.2754 126.181L90.9984 126.819V134.481H92.2754V126.181Z" fill="#646464"/>
<path d="M85.8905 138.312L92.2753 134.481H90.9984L84.6135 138.312H85.8905Z" fill="#A5A5A5"/>
<path d="M71.8438 177.26V169.598L78.2286 165.767V173.429L71.8438 177.26Z" fill="url(#paint3_linear_497_8299)"/>
<path d="M79.5056 165.128L78.2286 165.767V173.429H79.5056V165.128Z" fill="#646464"/>
<path d="M73.1207 177.259L79.5056 173.429H78.2286L71.8438 177.259H73.1207Z" fill="#A5A5A5"/>
<path d="M71.8438 161.936V154.274L78.2286 150.443V158.105L71.8438 161.936Z" fill="url(#paint4_linear_497_8299)"/>
<path d="M79.5056 149.805L78.2286 150.443V158.105H79.5056V149.805Z" fill="#646464"/>
<path d="M73.1207 161.936L79.5056 158.105H78.2286L71.8438 161.936H73.1207Z" fill="#A5A5A5"/>
<path d="M71.8438 146.612V138.95L78.2286 135.12V142.781L71.8438 146.612Z" fill="url(#paint5_linear_497_8299)"/>
<path d="M79.5056 134.481L78.2286 135.12V142.781H79.5056V134.481Z" fill="#646464"/>
<path d="M73.1207 146.612L79.5056 142.781H78.2286L71.8438 146.612H73.1207Z" fill="#A5A5A5"/>
<path d="M97.3832 161.936V154.274L103.768 150.443V158.105L97.3832 161.936Z" fill="url(#paint6_linear_497_8299)"/>
<path d="M105.045 149.805L103.768 150.443V158.105H105.045V149.805Z" fill="#646464"/>
<path d="M98.6602 161.936L105.045 158.105H103.768L97.3832 161.936H98.6602Z" fill="#A5A5A5"/>
<path d="M97.3832 146.612V138.95L103.768 135.12V142.781L97.3832 146.612Z" fill="url(#paint7_linear_497_8299)"/>
<path d="M105.045 134.481L103.768 135.12V142.781H105.045V134.481Z" fill="#646464"/>
<path d="M98.6602 146.612L105.045 142.781H103.768L97.3832 146.612H98.6602Z" fill="#A5A5A5"/>
<path d="M97.3832 131.289V123.627L103.768 119.796V127.458L97.3832 131.289Z" fill="url(#paint8_linear_497_8299)"/>
<path d="M105.045 119.157L103.768 119.796V127.458H105.045V119.157Z" fill="#646464"/>
<path d="M98.6602 131.288L105.045 127.458H103.768L97.3832 131.288H98.6602Z" fill="#A5A5A5"/>
<path d="M110.153 154.274V146.612L116.538 142.781V150.443L110.153 154.274Z" fill="url(#paint9_linear_497_8299)"/>
<path d="M117.815 142.143L116.538 142.781V150.443H117.815V142.143Z" fill="#646464"/>
<path d="M111.43 154.274L117.815 150.443H116.538L110.153 154.274H111.43Z" fill="#A5A5A5"/>
<path d="M110.153 138.95V131.289L116.538 127.458V135.12L110.153 138.95Z" fill="url(#paint10_linear_497_8299)"/>
<path d="M117.815 126.819L116.538 127.458V135.12H117.815V126.819Z" fill="#646464"/>
<path d="M111.43 138.95L117.815 135.12H116.538L110.153 138.95H111.43Z" fill="#A5A5A5"/>
<path d="M110.153 123.627V115.965L116.538 112.134V119.796L110.153 123.627Z" fill="url(#paint11_linear_497_8299)"/>
<path d="M117.815 111.496L116.538 112.134V119.796H117.815V111.496Z" fill="#646464"/>
<path d="M111.43 123.627L117.815 119.796H116.538L110.153 123.627H111.43Z" fill="#A5A5A5"/>
<path d="M122.922 146.612V138.951L129.307 135.12V142.782L122.922 146.612Z" fill="url(#paint12_linear_497_8299)"/>
<path d="M130.584 134.481L129.307 135.12V142.781H130.584V134.481Z" fill="#646464"/>
<path d="M124.199 146.612L130.584 142.781H129.307L122.922 146.612H124.199Z" fill="#A5A5A5"/>
<path d="M122.922 131.289V123.627L129.307 119.796V127.458L122.922 131.289Z" fill="url(#paint13_linear_497_8299)"/>
<path d="M130.584 119.157L129.307 119.796V127.458H130.584V119.157Z" fill="#646464"/>
<path d="M124.199 131.289L130.584 127.458H129.307L122.922 131.289H124.199Z" fill="#A5A5A5"/>
<path d="M122.922 115.965V108.303L129.307 104.472V112.134L122.922 115.965Z" fill="url(#paint14_linear_497_8299)"/>
<path d="M130.584 103.834L129.307 104.472V112.134H130.584V103.834Z" fill="#646464"/>
<path d="M124.199 115.965L130.584 112.134H129.307L122.922 115.965H124.199Z" fill="#A5A5A5"/>
<g filter="url(#filter0_d_497_8299)">
<path d="M156.124 204.076V197.691L200.818 197.053V204.076C192.517 221.315 159.955 217.484 156.124 204.076Z" fill="#F96E27"/>
<ellipse cx="178.471" cy="197.691" rx="22.347" ry="14.6852" fill="#FFA172"/>
<path d="M158.678 166.405L158.039 197.691C166.339 214.93 192.517 211.099 198.902 197.691L198.264 165.767L158.678 166.405Z" fill="url(#paint15_linear_497_8299)"/>
<ellipse cx="178.471" cy="166.405" rx="19.793" ry="11.4927" fill="#FFA172"/>
<ellipse cx="178.471" cy="166.405" rx="15.9621" ry="8.93879" fill="url(#paint16_radial_497_8299)"/>
<ellipse cx="183.579" cy="168.959" rx="4.46939" ry="2.55394" fill="#FF803F"/>
<path d="M186.771 174.802C187.398 175.303 188.468 176.432 189.467 178.092M191.383 182.696C191.613 183.614 191.764 185.234 191.854 187.301M191.383 182.696L197.902 180.065M191.383 182.696C190.931 180.889 190.219 179.34 189.467 178.092M191.383 214.93C191.457 213.42 191.536 211.627 191.611 209.668M193.36 171.513C194.104 171.884 195.309 172.926 196.312 174.802M197.973 211.641C198.009 210.332 198.048 208.765 198.085 207.036M191.611 209.668L198.085 207.036M191.611 209.668C191.682 207.809 191.75 205.802 191.807 203.747M198.085 207.036C198.124 205.207 198.161 203.196 198.192 201.116M191.807 203.747L198.192 201.116M191.807 203.747C191.861 201.788 191.905 199.786 191.933 197.827M198.192 201.116C198.22 199.172 198.242 197.168 198.254 195.195M191.933 197.827L198.254 195.195M191.933 197.827C191.959 196.012 191.971 194.235 191.963 192.564M198.254 195.195C198.265 193.391 198.267 191.614 198.258 189.933M191.963 192.564L198.258 189.933M191.963 192.564C191.955 190.632 191.921 188.843 191.854 187.301M198.258 189.933C198.248 188.019 198.222 186.23 198.177 184.67M191.854 187.301L198.177 184.67M198.177 184.67C198.131 183.081 198.064 181.729 197.973 180.723C197.952 180.499 197.929 180.28 197.902 180.065M197.902 180.065C197.626 177.858 197.019 176.123 196.312 174.802M189.467 178.092L196.312 174.802" stroke="#292929" stroke-width="0.81527" stroke-linecap="round"/>
</g>
<g filter="url(#filter1_d_497_8299)">
<path d="M111.43 230.892V224.508L156.124 223.869V230.892C147.824 248.131 115.261 244.301 111.43 230.892Z" fill="#F96E27"/>
<ellipse cx="133.777" cy="224.508" rx="22.347" ry="14.6852" fill="#FFA172"/>
<path d="M113.984 193.222L113.345 224.508C121.646 241.747 147.824 237.916 154.208 224.508L153.57 192.583L113.984 193.222Z" fill="url(#paint17_linear_497_8299)"/>
<ellipse cx="133.777" cy="193.222" rx="19.793" ry="11.4927" fill="#FFA172"/>
<ellipse cx="133.777" cy="193.222" rx="15.9621" ry="8.93879" fill="url(#paint18_radial_497_8299)"/>
<ellipse cx="138.885" cy="195.776" rx="4.46939" ry="2.55394" fill="#FF803F"/>
<path d="M140.8 202.896C141.427 203.396 142.497 204.525 143.497 206.185M145.413 210.79C145.642 211.707 145.793 213.328 145.883 215.395M145.413 210.79L151.931 208.158M145.413 210.79C144.96 208.982 144.248 207.433 143.497 206.185M145.413 243.024C145.487 241.513 145.565 239.72 145.64 237.761M147.39 199.607C148.133 199.978 149.338 201.019 150.342 202.896M152.002 239.734C152.038 238.425 152.077 236.858 152.114 235.13M145.64 237.761L152.114 235.13M145.64 237.761C145.711 235.903 145.779 233.896 145.836 231.84M152.114 235.13C152.154 233.3 152.191 231.289 152.221 229.209M145.836 231.84L152.221 229.209M145.836 231.84C145.89 229.882 145.934 227.879 145.962 225.92M152.221 229.209C152.249 227.265 152.271 225.261 152.283 223.289M145.962 225.92L152.283 223.289M145.962 225.92C145.988 224.106 146 222.328 145.993 220.657M152.283 223.289C152.294 221.485 152.297 219.707 152.287 218.026M145.993 220.657L152.287 218.026M145.993 220.657C145.984 218.726 145.951 216.936 145.883 215.395M152.287 218.026C152.277 216.112 152.251 214.324 152.206 212.763M145.883 215.395L152.206 212.763M152.206 212.763C152.16 211.175 152.094 209.823 152.002 208.816C151.982 208.593 151.958 208.373 151.931 208.158M151.931 208.158C151.655 205.952 151.048 204.217 150.342 202.896M143.497 206.185L150.342 202.896" stroke="#292929" stroke-width="0.81527" stroke-linecap="round"/>
</g>
<g filter="url(#filter2_d_497_8299)">
<path d="M68.0129 256.432V250.047L112.707 249.408V256.432C104.407 273.671 71.8438 269.84 68.0129 256.432Z" fill="#F96E27"/>
<ellipse cx="90.3599" cy="250.047" rx="22.347" ry="14.6852" fill="#FFA172"/>
<path d="M70.5668 218.761L69.9283 250.047C78.2286 267.286 104.407 263.455 110.791 250.047L110.153 218.122L70.5668 218.761Z" fill="url(#paint19_linear_497_8299)"/>
<ellipse cx="90.3599" cy="218.761" rx="19.793" ry="11.4927" fill="#FFA172"/>
<ellipse cx="90.3599" cy="218.761" rx="15.9621" ry="8.93879" fill="url(#paint20_radial_497_8299)"/>
<ellipse cx="95.4679" cy="221.315" rx="4.46939" ry="2.55394" fill="#FF803F"/>
<path d="M96.1063 228.435C96.733 228.936 97.8033 230.065 98.8026 231.724M100.719 236.329C100.948 237.246 101.099 238.867 101.189 240.934M100.719 236.329L107.237 233.698M100.719 236.329C100.266 234.522 99.5544 232.973 98.8026 231.724M100.719 268.563C100.793 267.053 100.871 265.259 100.946 263.3M102.696 225.146C103.439 225.517 104.644 226.558 105.648 228.435M107.308 265.274C107.344 263.964 107.383 262.398 107.42 260.669M100.946 263.3L107.42 260.669M100.946 263.3C101.017 261.442 101.085 259.435 101.142 257.38M107.42 260.669C107.46 258.84 107.497 256.829 107.527 254.748M101.142 257.38L107.527 254.748M101.142 257.38C101.196 255.421 101.24 253.419 101.268 251.459M107.527 254.748C107.555 252.805 107.577 250.801 107.589 248.828M101.268 251.459L107.589 248.828M101.268 251.459C101.294 249.645 101.306 247.868 101.299 246.197M107.589 248.828C107.6 247.024 107.603 245.246 107.593 243.565M101.299 246.197L107.593 243.565M101.299 246.197C101.29 244.265 101.257 242.475 101.189 240.934M107.593 243.565C107.583 241.652 107.557 239.863 107.512 238.303M101.189 240.934L107.512 238.303M107.512 238.303C107.466 236.714 107.4 235.362 107.308 234.356C107.288 234.132 107.264 233.913 107.237 233.698M107.237 233.698C106.961 231.491 106.354 229.756 105.648 228.435M98.8026 231.724L105.648 228.435" stroke="#292929" stroke-width="0.81527" stroke-linecap="round"/>
</g>
<g filter="url(#filter3_d_497_8299)">
<path d="M99.9369 88.5102C99.9369 90.6259 96.7925 92.3411 92.9136 92.3411C89.0347 92.3411 85.8903 90.6259 85.8903 88.5102C85.8903 86.3944 89.0347 84.6793 92.9136 84.6793C96.7925 84.6793 99.9369 86.3944 99.9369 88.5102Z" fill="url(#paint21_linear_497_8299)"/>
<path d="M85.8903 88.5102C85.8903 86.3944 89.0347 84.6793 92.9136 84.6793C96.7925 84.6793 99.9369 86.3944 99.9369 88.5102V33.6005C97.1702 35.7287 90.4873 38.7083 85.8903 33.6005V88.5102Z" fill="url(#paint22_linear_497_8299)"/>
<path d="M99.2985 34.2391C92.6583 38.3254 88.0186 35.9417 86.5288 34.2391V33.6006C87.1673 32.1108 89.5935 29.3866 94.1906 30.4081C98.7877 31.4297 99.5113 33.3877 99.2985 34.2391Z" fill="#FFA172"/>
<path d="M87.8058 35.516C89.0828 33.6005 95.4677 32.962 98.0216 35.516C96.5318 36.5801 92.4029 38.0699 87.8058 35.516Z" fill="#3A3A3F"/>
<path d="M99.1217 33.6006C99.1217 34.2203 98.6499 34.9608 97.4894 35.5938C96.3598 36.2099 94.7435 36.6163 92.9136 36.6163C91.0837 36.6163 89.4674 36.2099 88.3377 35.5938C87.1773 34.9608 86.7055 34.2203 86.7055 33.6006C86.7055 32.9809 87.1773 32.2405 88.3377 31.6075C89.4674 30.9913 91.0837 30.585 92.9136 30.585C94.7435 30.585 96.3598 30.9913 97.4894 31.6075C98.6499 32.2405 99.1217 32.9809 99.1217 33.6006Z" stroke="#D14904" stroke-width="1.63054"/>
</g>
<g filter="url(#filter4_d_497_8299)">
<path d="M84.6134 96.1722C84.6134 98.2879 81.469 100.003 77.5901 100.003C73.7112 100.003 70.5668 98.2879 70.5668 96.1722C70.5668 94.0564 73.7112 92.3412 77.5901 92.3412C81.469 92.3412 84.6134 94.0564 84.6134 96.1722Z" fill="url(#paint23_linear_497_8299)"/>
<path d="M70.5668 96.1722C70.5668 94.0564 73.7112 92.3412 77.5901 92.3412C81.469 92.3412 84.6134 94.0564 84.6134 96.1722V41.2625C81.8467 43.3907 75.1639 46.3703 70.5668 41.2625V96.1722Z" fill="url(#paint24_linear_497_8299)"/>
<path d="M83.9751 41.9009C77.3349 45.9872 72.6952 43.6035 71.2054 41.9009V41.2624C71.8439 39.7726 74.2702 37.0484 78.8673 38.07C83.4644 39.0915 84.188 41.0496 83.9751 41.9009Z" fill="#FFA172"/>
<path d="M72.4823 43.1778C73.7593 41.2624 80.1441 40.6239 82.6981 43.1778C81.2083 44.242 77.0794 45.7318 72.4823 43.1778Z" fill="#3A3A3F"/>
<path d="M83.7981 41.2624C83.7981 41.882 83.3264 42.6225 82.1659 43.2555C81.0362 43.8717 79.42 44.278 77.59 44.278C75.7601 44.278 74.1438 43.8717 73.0142 43.2555C71.8537 42.6225 71.382 41.882 71.382 41.2624C71.382 40.6427 71.8537 39.9022 73.0142 39.2692C74.1438 38.6531 75.7601 38.2467 77.59 38.2467C79.42 38.2467 81.0362 38.6531 82.1659 39.2692C83.3264 39.9022 83.7981 40.6427 83.7981 41.2624Z" stroke="#D14904" stroke-width="1.63054"/>
</g>
<g filter="url(#filter5_d_497_8299)">
<path d="M68.013 106.388C68.013 108.503 64.8685 110.219 60.9896 110.219C57.1108 110.219 53.9663 108.503 53.9663 106.388C53.9663 104.272 57.1108 102.557 60.9896 102.557C64.8685 102.557 68.013 104.272 68.013 106.388Z" fill="url(#paint25_linear_497_8299)"/>
<path d="M53.9663 106.388C53.9663 104.272 57.1108 102.557 60.9896 102.557C64.8685 102.557 68.013 104.272 68.013 106.388V51.478C65.2462 53.6062 58.5634 56.5858 53.9663 51.478V106.388Z" fill="url(#paint26_linear_497_8299)"/>
<path d="M67.3746 52.1165C60.7344 56.2028 56.0947 53.8191 54.6049 52.1165V51.478C55.2434 49.9882 57.6696 47.264 62.2667 48.2856C66.8638 49.3072 67.5874 51.2652 67.3746 52.1165Z" fill="#FFA172"/>
<path d="M55.8817 53.3934C57.1587 51.4779 63.5435 50.8394 66.0975 53.3934C64.6077 54.4575 60.4788 55.9473 55.8817 53.3934Z" fill="#3A3A3F"/>
<path d="M67.1978 51.4781C67.1978 52.0978 66.726 52.8383 65.5656 53.4713C64.4359 54.0874 62.8196 54.4938 60.9897 54.4938C59.1598 54.4938 57.5435 54.0874 56.4139 53.4713C55.2534 52.8383 54.7816 52.0978 54.7816 51.4781C54.7816 50.8585 55.2534 50.118 56.4139 49.485C57.5435 48.8688 59.1598 48.4625 60.9897 48.4625C62.8196 48.4625 64.4359 48.8688 65.5656 49.485C66.726 50.118 67.1978 50.8585 67.1978 51.4781Z" stroke="#D14904" stroke-width="1.63054"/>
</g>
<ellipse cx="29.0653" cy="41.2624" rx="4.46939" ry="3.83091" fill="url(#paint27_linear_497_8299)"/>
<circle cx="34.8117" cy="39.9854" r="3.83091" fill="url(#paint28_linear_497_8299)"/>
<circle cx="36.0887" cy="43.8164" r="3.83091" fill="url(#paint29_linear_497_8299)"/>
<circle cx="41.1967" cy="41.2624" r="3.83091" fill="url(#paint30_linear_497_8299)"/>
<circle cx="46.3044" cy="46.3703" r="3.83091" fill="url(#paint31_linear_497_8299)"/>
<circle cx="41.1967" cy="46.3703" r="3.83091" fill="url(#paint32_linear_497_8299)"/>
<ellipse cx="44.3886" cy="31.0465" rx="4.46939" ry="3.83091" fill="url(#paint33_linear_497_8299)"/>
<circle cx="50.135" cy="29.7696" r="3.83091" fill="url(#paint34_linear_497_8299)"/>
<circle cx="51.4119" cy="33.6004" r="3.83091" fill="url(#paint35_linear_497_8299)"/>
<circle cx="56.52" cy="31.0465" r="3.83091" fill="url(#paint36_linear_497_8299)"/>
<circle cx="61.6277" cy="36.1545" r="3.83091" fill="url(#paint37_linear_497_8299)"/>
<circle cx="56.52" cy="36.1545" r="3.83091" fill="url(#paint38_linear_497_8299)"/>
<ellipse cx="60.9894" cy="22.1076" rx="4.46939" ry="3.83091" fill="url(#paint39_linear_497_8299)"/>
<circle cx="66.7358" cy="20.8308" r="3.83091" fill="url(#paint40_linear_497_8299)"/>
<circle cx="68.0126" cy="24.6617" r="3.83091" fill="url(#paint41_linear_497_8299)"/>
<circle cx="73.1209" cy="22.1076" r="3.83091" fill="url(#paint42_linear_497_8299)"/>
<circle cx="78.2286" cy="27.2158" r="3.83091" fill="url(#paint43_linear_497_8299)"/>
<circle cx="73.1209" cy="27.2158" r="3.83091" fill="url(#paint44_linear_497_8299)"/>
<defs>
<filter id="filter0_d_497_8299" x="126.812" y="125.601" width="103.316" height="119.323" filterUnits="userSpaceOnUse" color-interpolation-filters="sRGB">
<feFlood flood-opacity="0" result="BackgroundImageFix"/>
<feColorMatrix in="SourceAlpha" type="matrix" values="0 0 0 0 0 0 0 0 0 0 0 0 0 0 0 0 0 0 127 0" result="hardAlpha"/>
<feOffset/>
<feGaussianBlur stdDeviation="14.6556"/>
<feComposite in2="hardAlpha" operator="out"/>
<feColorMatrix type="matrix" values="0 0 0 0 0.991667 0 0 0 0 0.554074 0 0 0 0 0.330556 0 0 0 0.8 0"/>
<feBlend mode="normal" in2="BackgroundImageFix" result="effect1_dropShadow_497_8299"/>
<feBlend mode="normal" in="SourceGraphic" in2="effect1_dropShadow_497_8299" result="shape"/>
</filter>
<filter id="filter1_d_497_8299" x="82.1189" y="152.418" width="103.316" height="120.324" filterUnits="userSpaceOnUse" color-interpolation-filters="sRGB">
<feFlood flood-opacity="0" result="BackgroundImageFix"/>
<feColorMatrix in="SourceAlpha" type="matrix" values="0 0 0 0 0 0 0 0 0 0 0 0 0 0 0 0 0 0 127 0" result="hardAlpha"/>
<feOffset/>
<feGaussianBlur stdDeviation="14.6556"/>
<feComposite in2="hardAlpha" operator="out"/>
<feColorMatrix type="matrix" values="0 0 0 0 0.991667 0 0 0 0 0.554074 0 0 0 0 0.330556 0 0 0 0.8 0"/>
<feBlend mode="normal" in2="BackgroundImageFix" result="effect1_dropShadow_497_8299"/>
<feBlend mode="normal" in="SourceGraphic" in2="effect1_dropShadow_497_8299" result="shape"/>
</filter>
<filter id="filter2_d_497_8299" x="38.7018" y="177.957" width="103.316" height="120.324" filterUnits="userSpaceOnUse" color-interpolation-filters="sRGB">
<feFlood flood-opacity="0" result="BackgroundImageFix"/>
<feColorMatrix in="SourceAlpha" type="matrix" values="0 0 0 0 0 0 0 0 0 0 0 0 0 0 0 0 0 0 127 0" result="hardAlpha"/>
<feOffset/>
<feGaussianBlur stdDeviation="14.6556"/>
<feComposite in2="hardAlpha" operator="out"/>
<feColorMatrix type="matrix" values="0 0 0 0 0.991667 0 0 0 0 0.554074 0 0 0 0 0.330556 0 0 0 0.8 0"/>
<feBlend mode="normal" in2="BackgroundImageFix" result="effect1_dropShadow_497_8299"/>
<feBlend mode="normal" in="SourceGraphic" in2="effect1_dropShadow_497_8299" result="shape"/>
</filter>
<filter id="filter3_d_497_8299" x="56.5791" y="0.458546" width="72.669" height="121.194" filterUnits="userSpaceOnUse" color-interpolation-filters="sRGB">
<feFlood flood-opacity="0" result="BackgroundImageFix"/>
<feColorMatrix in="SourceAlpha" type="matrix" values="0 0 0 0 0 0 0 0 0 0 0 0 0 0 0 0 0 0 127 0" result="hardAlpha"/>
<feOffset/>
<feGaussianBlur stdDeviation="14.6556"/>
<feComposite in2="hardAlpha" operator="out"/>
<feColorMatrix type="matrix" values="0 0 0 0 0.991667 0 0 0 0 0.554074 0 0 0 0 0.330556 0 0 0 0.8 0"/>
<feBlend mode="normal" in2="BackgroundImageFix" result="effect1_dropShadow_497_8299"/>
<feBlend mode="normal" in="SourceGraphic" in2="effect1_dropShadow_497_8299" result="shape"/>
</filter>
<filter id="filter4_d_497_8299" x="41.2555" y="8.12029" width="72.6691" height="121.194" filterUnits="userSpaceOnUse" color-interpolation-filters="sRGB">
<feFlood flood-opacity="0" result="BackgroundImageFix"/>
<feColorMatrix in="SourceAlpha" type="matrix" values="0 0 0 0 0 0 0 0 0 0 0 0 0 0 0 0 0 0 127 0" result="hardAlpha"/>
<feOffset/>
<feGaussianBlur stdDeviation="14.6556"/>
<feComposite in2="hardAlpha" operator="out"/>
<feColorMatrix type="matrix" values="0 0 0 0 0.991667 0 0 0 0 0.554074 0 0 0 0 0.330556 0 0 0 0.8 0"/>
<feBlend mode="normal" in2="BackgroundImageFix" result="effect1_dropShadow_497_8299"/>
<feBlend mode="normal" in="SourceGraphic" in2="effect1_dropShadow_497_8299" result="shape"/>
</filter>
<filter id="filter5_d_497_8299" x="24.6551" y="18.336" width="72.6691" height="121.194" filterUnits="userSpaceOnUse" color-interpolation-filters="sRGB">
<feFlood flood-opacity="0" result="BackgroundImageFix"/>
<feColorMatrix in="SourceAlpha" type="matrix" values="0 0 0 0 0 0 0 0 0 0 0 0 0 0 0 0 0 0 127 0" result="hardAlpha"/>
<feOffset/>
<feGaussianBlur stdDeviation="14.6556"/>
<feComposite in2="hardAlpha" operator="out"/>
<feColorMatrix type="matrix" values="0 0 0 0 0.991667 0 0 0 0 0.554074 0 0 0 0 0.330556 0 0 0 0.8 0"/>
<feBlend mode="normal" in2="BackgroundImageFix" result="effect1_dropShadow_497_8299"/>
<feBlend mode="normal" in="SourceGraphic" in2="effect1_dropShadow_497_8299" result="shape"/>
</filter>
<linearGradient id="paint0_linear_497_8299" x1="87.8059" y1="157.466" x2="87.8059" y2="168.959" gradientUnits="userSpaceOnUse">
<stop stop-color="white"/>
<stop offset="1" stop-color="white" stop-opacity="0.4"/>
</linearGradient>
<linearGradient id="paint1_linear_497_8299" x1="87.8059" y1="142.143" x2="87.8059" y2="153.636" gradientUnits="userSpaceOnUse">
<stop stop-color="white"/>
<stop offset="1" stop-color="white" stop-opacity="0.4"/>
</linearGradient>
<linearGradient id="paint2_linear_497_8299" x1="87.8059" y1="126.819" x2="87.8059" y2="138.312" gradientUnits="userSpaceOnUse">
<stop stop-color="white"/>
<stop offset="1" stop-color="white" stop-opacity="0.4"/>
</linearGradient>
<linearGradient id="paint3_linear_497_8299" x1="75.0362" y1="165.767" x2="75.0362" y2="177.26" gradientUnits="userSpaceOnUse">
<stop stop-color="white"/>
<stop offset="1" stop-color="white" stop-opacity="0.4"/>
</linearGradient>
<linearGradient id="paint4_linear_497_8299" x1="75.0362" y1="150.443" x2="75.0362" y2="161.936" gradientUnits="userSpaceOnUse">
<stop stop-color="white"/>
<stop offset="1" stop-color="white" stop-opacity="0.4"/>
</linearGradient>
<linearGradient id="paint5_linear_497_8299" x1="75.0362" y1="135.12" x2="75.0362" y2="146.612" gradientUnits="userSpaceOnUse">
<stop stop-color="white"/>
<stop offset="1" stop-color="white" stop-opacity="0.4"/>
</linearGradient>
<linearGradient id="paint6_linear_497_8299" x1="100.576" y1="150.443" x2="100.576" y2="161.936" gradientUnits="userSpaceOnUse">
<stop stop-color="white"/>
<stop offset="1" stop-color="white" stop-opacity="0.4"/>
</linearGradient>
<linearGradient id="paint7_linear_497_8299" x1="100.576" y1="135.12" x2="100.576" y2="146.612" gradientUnits="userSpaceOnUse">
<stop stop-color="white"/>
<stop offset="1" stop-color="white" stop-opacity="0.4"/>
</linearGradient>
<linearGradient id="paint8_linear_497_8299" x1="100.576" y1="119.796" x2="100.576" y2="131.289" gradientUnits="userSpaceOnUse">
<stop stop-color="white"/>
<stop offset="1" stop-color="white" stop-opacity="0.4"/>
</linearGradient>
<linearGradient id="paint9_linear_497_8299" x1="113.345" y1="142.781" x2="113.345" y2="154.274" gradientUnits="userSpaceOnUse">
<stop stop-color="white"/>
<stop offset="1" stop-color="white" stop-opacity="0.4"/>
</linearGradient>
<linearGradient id="paint10_linear_497_8299" x1="113.345" y1="127.458" x2="113.345" y2="138.95" gradientUnits="userSpaceOnUse">
<stop stop-color="white"/>
<stop offset="1" stop-color="white" stop-opacity="0.4"/>
</linearGradient>
<linearGradient id="paint11_linear_497_8299" x1="113.345" y1="112.134" x2="113.345" y2="123.627" gradientUnits="userSpaceOnUse">
<stop stop-color="white"/>
<stop offset="1" stop-color="white" stop-opacity="0.4"/>
</linearGradient>
<linearGradient id="paint12_linear_497_8299" x1="126.115" y1="135.12" x2="126.115" y2="146.612" gradientUnits="userSpaceOnUse">
<stop stop-color="white"/>
<stop offset="1" stop-color="white" stop-opacity="0.4"/>
</linearGradient>
<linearGradient id="paint13_linear_497_8299" x1="126.115" y1="119.796" x2="126.115" y2="131.289" gradientUnits="userSpaceOnUse">
<stop stop-color="white"/>
<stop offset="1" stop-color="white" stop-opacity="0.4"/>
</linearGradient>
<linearGradient id="paint14_linear_497_8299" x1="126.115" y1="104.472" x2="126.115" y2="115.965" gradientUnits="userSpaceOnUse">
<stop stop-color="white"/>
<stop offset="1" stop-color="white" stop-opacity="0.4"/>
</linearGradient>
<linearGradient id="paint15_linear_497_8299" x1="178.471" y1="165.767" x2="178.471" y2="209.228" gradientUnits="userSpaceOnUse">
<stop offset="0.260417" stop-color="#F96E27"/>
<stop offset="1" stop-color="#F96E27" stop-opacity="0.2"/>
</linearGradient>
<radialGradient id="paint16_radial_497_8299" cx="0" cy="0" r="1" gradientUnits="userSpaceOnUse" gradientTransform="translate(178.471 166.405) rotate(90) scale(8.93879 15.9621)">
<stop stop-color="#CC4804"/>
<stop offset="1" stop-color="#CC4804" stop-opacity="0.49"/>
</radialGradient>
<linearGradient id="paint17_linear_497_8299" x1="133.777" y1="192.583" x2="133.777" y2="236.045" gradientUnits="userSpaceOnUse">
<stop offset="0.260417" stop-color="#F96E27"/>
<stop offset="1" stop-color="#F96E27" stop-opacity="0.2"/>
</linearGradient>
<radialGradient id="paint18_radial_497_8299" cx="0" cy="0" r="1" gradientUnits="userSpaceOnUse" gradientTransform="translate(133.777 193.222) rotate(90) scale(8.93879 15.9621)">
<stop stop-color="#CC4804"/>
<stop offset="1" stop-color="#CC4804" stop-opacity="0.49"/>
</radialGradient>
<linearGradient id="paint19_linear_497_8299" x1="90.3599" y1="218.122" x2="90.3599" y2="261.584" gradientUnits="userSpaceOnUse">
<stop offset="0.260417" stop-color="#F96E27"/>
<stop offset="1" stop-color="#F96E27" stop-opacity="0.2"/>
</linearGradient>
<radialGradient id="paint20_radial_497_8299" cx="0" cy="0" r="1" gradientUnits="userSpaceOnUse" gradientTransform="translate(90.3599 218.761) rotate(90) scale(8.93879 15.9621)">
<stop stop-color="#CC4804"/>
<stop offset="1" stop-color="#CC4804" stop-opacity="0.49"/>
</radialGradient>
<linearGradient id="paint21_linear_497_8299" x1="92.9136" y1="33.6005" x2="92.9136" y2="92.3411" gradientUnits="userSpaceOnUse">
<stop stop-color="#F96E27" stop-opacity="0.71"/>
<stop offset="1" stop-color="#F96E27"/>
</linearGradient>
<linearGradient id="paint22_linear_497_8299" x1="92.9136" y1="33.6005" x2="92.9136" y2="92.3411" gradientUnits="userSpaceOnUse">
<stop stop-color="#F96E27" stop-opacity="0.71"/>
<stop offset="1" stop-color="#F96E27"/>
</linearGradient>
<linearGradient id="paint23_linear_497_8299" x1="77.5901" y1="41.2625" x2="77.5901" y2="100.003" gradientUnits="userSpaceOnUse">
<stop stop-color="#F96E27" stop-opacity="0.71"/>
<stop offset="1" stop-color="#F96E27"/>
</linearGradient>
<linearGradient id="paint24_linear_497_8299" x1="77.5901" y1="41.2625" x2="77.5901" y2="100.003" gradientUnits="userSpaceOnUse">
<stop stop-color="#F96E27" stop-opacity="0.71"/>
<stop offset="1" stop-color="#F96E27"/>
</linearGradient>
<linearGradient id="paint25_linear_497_8299" x1="60.9896" y1="51.478" x2="60.9896" y2="110.219" gradientUnits="userSpaceOnUse">
<stop stop-color="#F96E27" stop-opacity="0.71"/>
<stop offset="1" stop-color="#F96E27"/>
</linearGradient>
<linearGradient id="paint26_linear_497_8299" x1="60.9896" y1="51.478" x2="60.9896" y2="110.219" gradientUnits="userSpaceOnUse">
<stop stop-color="#F96E27" stop-opacity="0.71"/>
<stop offset="1" stop-color="#F96E27"/>
</linearGradient>
<linearGradient id="paint27_linear_497_8299" x1="29.0653" y1="37.4315" x2="29.0653" y2="45.0933" gradientUnits="userSpaceOnUse">
<stop stop-color="#A8B4C2"/>
<stop offset="1" stop-color="#A8B4C2" stop-opacity="0.78"/>
</linearGradient>
<linearGradient id="paint28_linear_497_8299" x1="34.8117" y1="36.1545" x2="34.8117" y2="43.8163" gradientUnits="userSpaceOnUse">
<stop stop-color="#A8B4C2"/>
<stop offset="1" stop-color="#A8B4C2" stop-opacity="0.78"/>
</linearGradient>
<linearGradient id="paint29_linear_497_8299" x1="36.0887" y1="39.9855" x2="36.0887" y2="47.6473" gradientUnits="userSpaceOnUse">
<stop stop-color="#A8B4C2"/>
<stop offset="1" stop-color="#A8B4C2" stop-opacity="0.78"/>
</linearGradient>
<linearGradient id="paint30_linear_497_8299" x1="41.1967" y1="37.4315" x2="41.1967" y2="45.0933" gradientUnits="userSpaceOnUse">
<stop stop-color="#A8B4C2"/>
<stop offset="1" stop-color="#A8B4C2" stop-opacity="0.78"/>
</linearGradient>
<linearGradient id="paint31_linear_497_8299" x1="46.3044" y1="42.5394" x2="46.3044" y2="50.2012" gradientUnits="userSpaceOnUse">
<stop stop-color="#A8B4C2"/>
<stop offset="1" stop-color="#A8B4C2" stop-opacity="0.78"/>
</linearGradient>
<linearGradient id="paint32_linear_497_8299" x1="41.1967" y1="42.5394" x2="41.1967" y2="50.2012" gradientUnits="userSpaceOnUse">
<stop stop-color="#A8B4C2"/>
<stop offset="1" stop-color="#A8B4C2" stop-opacity="0.78"/>
</linearGradient>
<linearGradient id="paint33_linear_497_8299" x1="44.3886" y1="27.2156" x2="44.3886" y2="34.8775" gradientUnits="userSpaceOnUse">
<stop stop-color="#A8B4C2"/>
<stop offset="1" stop-color="#A8B4C2" stop-opacity="0.78"/>
</linearGradient>
<linearGradient id="paint34_linear_497_8299" x1="50.135" y1="25.9387" x2="50.135" y2="33.6005" gradientUnits="userSpaceOnUse">
<stop stop-color="#A8B4C2"/>
<stop offset="1" stop-color="#A8B4C2" stop-opacity="0.78"/>
</linearGradient>
<linearGradient id="paint35_linear_497_8299" x1="51.4119" y1="29.7695" x2="51.4119" y2="37.4313" gradientUnits="userSpaceOnUse">
<stop stop-color="#A8B4C2"/>
<stop offset="1" stop-color="#A8B4C2" stop-opacity="0.78"/>
</linearGradient>
<linearGradient id="paint36_linear_497_8299" x1="56.52" y1="27.2156" x2="56.52" y2="34.8775" gradientUnits="userSpaceOnUse">
<stop stop-color="#A8B4C2"/>
<stop offset="1" stop-color="#A8B4C2" stop-opacity="0.78"/>
</linearGradient>
<linearGradient id="paint37_linear_497_8299" x1="61.6277" y1="32.3236" x2="61.6277" y2="39.9854" gradientUnits="userSpaceOnUse">
<stop stop-color="#A8B4C2"/>
<stop offset="1" stop-color="#A8B4C2" stop-opacity="0.78"/>
</linearGradient>
<linearGradient id="paint38_linear_497_8299" x1="56.52" y1="32.3236" x2="56.52" y2="39.9854" gradientUnits="userSpaceOnUse">
<stop stop-color="#A8B4C2"/>
<stop offset="1" stop-color="#A8B4C2" stop-opacity="0.78"/>
</linearGradient>
<linearGradient id="paint39_linear_497_8299" x1="60.9894" y1="18.2767" x2="60.9894" y2="25.9386" gradientUnits="userSpaceOnUse">
<stop stop-color="#A8B4C2"/>
<stop offset="1" stop-color="#A8B4C2" stop-opacity="0.78"/>
</linearGradient>
<linearGradient id="paint40_linear_497_8299" x1="66.7358" y1="16.9999" x2="66.7358" y2="24.6618" gradientUnits="userSpaceOnUse">
<stop stop-color="#A8B4C2"/>
<stop offset="1" stop-color="#A8B4C2" stop-opacity="0.78"/>
</linearGradient>
<linearGradient id="paint41_linear_497_8299" x1="68.0125" y1="20.8308" x2="68.0125" y2="28.4926" gradientUnits="userSpaceOnUse">
<stop stop-color="#A8B4C2"/>
<stop offset="1" stop-color="#A8B4C2" stop-opacity="0.78"/>
</linearGradient>
<linearGradient id="paint42_linear_497_8299" x1="73.1209" y1="18.2767" x2="73.1209" y2="25.9386" gradientUnits="userSpaceOnUse">
<stop stop-color="#A8B4C2"/>
<stop offset="1" stop-color="#A8B4C2" stop-opacity="0.78"/>
</linearGradient>
<linearGradient id="paint43_linear_497_8299" x1="78.2286" y1="23.3849" x2="78.2286" y2="31.0467" gradientUnits="userSpaceOnUse">
<stop stop-color="#A8B4C2"/>
<stop offset="1" stop-color="#A8B4C2" stop-opacity="0.78"/>
</linearGradient>
<linearGradient id="paint44_linear_497_8299" x1="73.1209" y1="23.3849" x2="73.1209" y2="31.0467" gradientUnits="userSpaceOnUse">
<stop stop-color="#A8B4C2"/>
<stop offset="1" stop-color="#A8B4C2" stop-opacity="0.78"/>
</linearGradient>
</defs>
</svg>
